<svg width="32" height="32" viewBox="0 0 32 32" fill="none" xmlns="http://www.w3.org/2000/svg">
<path d="M6.63997 12.9133C3.99197 11.8547 2.66797 11.3253 2.66797 10.6667C2.66797 10.008 3.99197 9.48 6.63997 8.42L10.384 6.92267C13.032 5.86267 14.3573 5.33334 16.0013 5.33334C17.6453 5.33334 18.9706 5.86267 21.6186 6.92267L25.3626 8.42C28.0106 9.47867 29.3346 10.008 29.3346 10.6667C29.3346 11.3253 28.0106 11.8533 25.3626 12.9133L21.6186 14.412C18.9706 15.4707 17.6453 16 16.0013 16C14.3573 16 13.032 15.4707 10.384 14.412L6.63997 12.9133Z" fill="white"/>
<path fill-rule="evenodd" clip-rule="evenodd" d="M2.66797 10.6667C2.66797 11.3253 3.99197 11.8533 6.63997 12.9133L10.384 14.412C13.032 15.4707 14.3573 16 16.0013 16C17.6453 16 18.9706 15.4707 21.6186 14.412L25.3626 12.9133C28.0106 11.8547 29.3346 11.3253 29.3346 10.6667C29.3346 10.008 28.0106 9.48 25.3626 8.42L21.6186 6.92267C18.9706 5.86267 17.6453 5.33334 16.0013 5.33334C14.3573 5.33334 13.032 5.86267 10.384 6.92267L6.6413 8.42C3.99197 9.47867 2.66797 10.008 2.66797 10.6667Z" fill="white"/>
<path d="M25.3626 18.2467L21.6186 19.7453C18.9706 20.804 17.6453 21.3333 16.0013 21.3333C14.3573 21.3333 13.032 20.804 10.384 19.7453L6.6413 18.2467C3.99197 17.188 2.66797 16.6573 2.66797 16C2.66797 15.4067 3.74397 14.9173 5.89464 14.052L10.0826 15.7267C12.5493 16.7133 14.0973 17.3333 16.0013 17.3333C17.9053 17.3333 19.4546 16.7133 21.92 15.7267L26.1066 14.052C28.26 14.9187 29.3346 15.4067 29.3346 16C29.3346 16.6573 28.0106 17.1867 25.3626 18.2467Z" fill="white"/>
<path d="M25.3626 23.58L21.6186 25.0773C18.9706 26.1373 17.6453 26.6667 16.0013 26.6667C14.3573 26.6667 13.032 26.1373 10.384 25.0773L6.6413 23.58C3.99197 22.52 2.66797 21.9907 2.66797 21.3333C2.66797 20.74 3.74397 20.2507 5.89464 19.3853L10.0826 21.06C12.5493 22.0467 14.0973 22.6667 16.0013 22.6667C17.9053 22.6667 19.4546 22.0467 21.92 21.06L26.1066 19.3853C28.2586 20.252 29.3346 20.74 29.3346 21.332C29.3346 21.9907 28.0106 22.52 25.3626 23.58Z" fill="white"/>
</svg>
