<svg width="22" height="22" viewBox="0 0 22 22" fill="none" xmlns="http://www.w3.org/2000/svg">
<path d="M1.00046 14.0837C1.55282 14.5254 2.258 14.7295 2.96089 14.6513C3.66377 14.573 4.30677 14.2187 4.74846 13.6664L8.46712 9.01837L11.7338 11.469C12.2883 11.8846 12.9828 12.0681 13.6702 11.9804C14.3576 11.8928 14.9839 11.5411 15.4165 10.9997L20.7498 4.33304C21.1916 3.78068 21.396 3.07542 21.3178 2.37241C21.2397 1.6694 20.8855 1.02622 20.3331 0.584374C19.7808 0.142523 19.0755 -0.0618072 18.3725 0.016333C17.6695 0.0944731 17.0263 0.448683 16.5845 1.00104L12.8658 5.64904L9.60046 3.20237C9.04628 2.78648 8.35198 2.60262 7.66459 2.68973C6.97721 2.77683 6.35072 3.12806 5.91779 3.66904L0.584457 10.3357C0.142647 10.8879 -0.061729 11.593 0.0162847 12.2959C0.0942985 12.9987 0.448312 13.6418 1.00046 14.0837ZM1.33379 21.3357H20.0005C20.3541 21.3357 20.6932 21.1952 20.9433 20.9452C21.1933 20.6951 21.3338 20.356 21.3338 20.0024C21.3338 19.6488 21.1933 19.3096 20.9433 19.0596C20.6932 18.8095 20.3541 18.669 20.0005 18.669H1.33379C0.980168 18.669 0.64103 18.8095 0.390981 19.0596C0.140933 19.3096 0.000456894 19.6488 0.000456894 20.0024C0.000456894 20.356 0.140933 20.6951 0.390981 20.9452C0.64103 21.1952 0.980168 21.3357 1.33379 21.3357Z" fill="white"/>
</svg>
