<svg width="68" height="73" viewBox="0 0 68 73" fill="none" xmlns="http://www.w3.org/2000/svg">
<path d="M13.0813 46.2234C13.7737 45.2772 14.9904 44.7887 16.201 45.0808C17.8081 45.4688 18.7963 47.0865 18.4081 48.6932L13.5359 68.868C13.1484 70.4753 11.5304 71.4632 9.92355 71.0752C8.31641 70.6872 7.32821 69.0696 7.7164 67.4628L12.5886 47.288C12.6843 46.8916 12.8548 46.5329 13.0813 46.2234Z" fill="#918CFF"/>
<path d="M21.3184 40.3811C21.4539 40.1959 21.6132 40.0236 21.7957 39.8681C23.0546 38.7964 24.9437 38.9481 26.0154 40.2069L48.3573 66.4486C49.429 67.7075 49.2777 69.5957 48.0185 70.6683C46.7596 71.74 44.8705 71.5883 43.7988 70.3295L21.4569 44.0878C20.5406 43.0117 20.5185 41.4742 21.3184 40.3811Z" fill="#918CFF"/>
<path d="M28.8616 30.0684C29.7272 28.8855 31.3528 28.4883 32.6839 29.198L52.607 39.8211C54.0658 40.599 54.6179 42.4121 53.84 43.8712C53.0638 45.3285 51.2489 45.8821 49.7899 45.1041L29.8668 34.4811C28.408 33.7031 27.8559 31.89 28.6338 30.431C28.7021 30.3032 28.7784 30.1821 28.8616 30.0684Z" fill="#918CFF"/>
<path d="M33.8292 17.8763C34.2816 17.2581 34.97 16.8124 35.7868 16.6861L62.5616 12.5396C64.1952 12.2865 65.7249 13.4059 65.9779 15.0397C66.2309 16.6732 65.1115 18.2029 63.4778 18.456L36.703 22.6025C35.0694 22.8556 33.5397 21.7362 33.2867 20.1024C33.1603 19.2853 33.3767 18.4946 33.8292 17.8763Z" fill="#918CFF"/>
</svg>
