<svg width="42" height="42" viewBox="0 0 42 42" fill="none" xmlns="http://www.w3.org/2000/svg">
<path d="M19.9712 8.57031H8.57031V19.9707H12.8632C13.0026 19.9707 13.1405 19.9984 13.269 20.0522C13.3975 20.106 13.514 20.1849 13.6117 20.2841C13.7094 20.3834 13.7864 20.5012 13.8382 20.6305C13.89 20.7598 13.9155 20.8982 13.9132 21.0375C13.9071 21.3034 13.8737 21.568 13.8135 21.8271C13.7321 22.2266 13.6035 22.5857 13.5011 22.8724L13.4812 22.9275C13.3525 23.2887 13.2607 23.5528 13.215 23.8063C13.2054 23.8608 13.2001 23.9159 13.1992 23.9712C13.2064 24.2041 13.2908 24.4279 13.4392 24.6076C13.5875 24.7872 13.7914 24.9124 14.0188 24.9634C14.177 24.9919 14.3398 24.9816 14.4932 24.9336C14.6466 24.8855 14.7861 24.801 14.8997 24.6873C15.0134 24.5736 15.0979 24.4341 15.146 24.2807C15.1941 24.1273 15.2043 23.9646 15.1759 23.8063C15.1302 23.5528 15.0383 23.2887 14.9097 22.9275L14.8897 22.8724C14.7259 22.4135 14.4955 21.7699 14.4955 21.07V21.0207C14.4955 20.7422 14.6061 20.4751 14.803 20.2782C14.9999 20.0813 15.267 19.9707 15.5455 19.9707H19.9702V16.9414L19.841 16.9876L19.8132 16.9981C19.4956 17.1126 19.0955 17.2575 18.6739 17.341C18.2065 17.4336 17.7242 17.419 17.2632 17.2982C16.8022 17.1775 16.3747 16.9537 16.0127 16.6438C15.4973 16.2448 15.1209 15.6934 14.9371 15.0681C14.7534 14.4427 14.7718 13.7753 14.9895 13.161C15.2073 12.5467 15.6134 12.0168 16.15 11.6468C16.6865 11.2767 17.3262 11.0855 17.9778 11.1003C18.2113 11.0942 18.4448 11.1141 18.6739 11.1596C19.0955 11.2431 19.4956 11.3875 19.8132 11.5024L19.841 11.5129L19.9702 11.5591L19.9712 8.57031ZM22.0712 22.0707V25.0438L22.1589 25.0123L22.1867 25.0018C22.5043 24.8873 22.9044 24.7424 23.326 24.6589C23.7645 24.5721 24.2165 24.5797 24.6519 24.6811C25.0873 24.7825 25.4961 24.9753 25.8512 25.2469C26.3266 25.5846 26.6969 26.0496 26.9197 26.5885C27.1424 27.1274 27.2084 27.7182 27.1101 28.2929C27.0118 28.8677 26.7531 29.403 26.364 29.8372C25.9748 30.2714 25.471 30.5869 24.9104 30.7474C24.3989 30.9131 23.8534 30.9451 23.326 30.8403C22.9039 30.7568 22.5043 30.6124 22.1867 30.4975L22.1589 30.487L22.1825 30.4219L22.151 30.4108L22.1258 30.4749L22.1578 30.487L22.0707 30.4555V33.4705H33.4711V22.0707H29.1209M29.1209 22.0707C29.0485 22.0707 28.9779 22.0635 28.9093 22.0492L29.1209 22.0707ZM28.9093 22.0492C28.6725 22.0004 28.4597 21.8714 28.3069 21.6839C28.1541 21.4965 28.0708 21.262 28.0709 21.0202V20.8957C28.0709 20.1964 28.3014 19.5523 28.4652 19.0934L28.4851 19.0383C28.6138 18.6771 28.7056 18.4135 28.7513 18.1594C28.7874 17.9577 28.7604 17.7497 28.6741 17.5638C28.5878 17.3779 28.4463 17.2231 28.2688 17.1205C28.1044 17.0254 27.9162 16.9794 27.7265 16.9878C27.5367 16.9962 27.3533 17.0587 27.1979 17.1679C27.0425 17.2772 26.9216 17.4285 26.8494 17.6042C26.7772 17.7799 26.7567 17.9725 26.7904 18.1594C26.8361 18.413 26.928 18.6771 27.0566 19.0383L27.0766 19.0934C27.202 19.4436 27.3653 19.9019 27.4362 20.4112C27.4589 20.5687 27.4705 20.7302 27.4708 20.8957V21.0202C27.4708 21.2986 27.3602 21.5657 27.1633 21.7626C26.9664 21.9595 26.6993 22.0702 26.4208 22.0702L22.0712 22.0707" fill="white"/>
<path d="M22.0707 12.8638C22.0707 13.1422 21.9601 13.4093 21.7631 13.6062C21.5662 13.8031 21.2992 13.9138 21.0207 13.9138H21.0154C20.8733 13.9134 20.7342 13.9047 20.5981 13.8875C19.9854 13.8466 19.4284 13.6476 19.0189 13.5006L18.9637 13.4812C18.6025 13.3525 18.3385 13.2607 18.0844 13.215C18.0503 13.2089 18.016 13.2045 17.9815 13.2019C17.7785 13.2172 17.5843 13.2912 17.4226 13.4149C17.2609 13.5385 17.1386 13.7065 17.0706 13.8984C17.0026 14.0903 16.9918 14.2978 17.0395 14.4957C17.0872 14.6936 17.1914 14.8733 17.3394 15.0131C17.5565 15.164 17.8246 15.2226 18.0849 15.1759C18.3385 15.1297 18.6025 15.0383 18.9637 14.9092L19.0189 14.8897C19.4777 14.7254 20.1214 14.4955 20.8207 14.4955H21.0202C21.2986 14.4955 21.5657 14.6061 21.7626 14.803C21.9595 14.9999 22.0702 15.267 22.0702 15.5455V19.9702H25.1577L25.0789 19.7455L25.0674 19.714C24.9514 19.3879 24.8023 18.9716 24.7235 18.5317L24.7219 18.5248C24.6906 18.3459 24.6748 18.1647 24.6747 17.983C24.6744 17.5531 24.7637 17.1278 24.9369 16.7343C25.11 16.3407 25.3632 15.9876 25.6804 15.6973C25.9975 15.407 26.3717 15.186 26.779 15.0483C27.1863 14.9106 27.6178 14.8592 28.046 14.8974C28.4743 14.9357 28.8899 15.0627 29.2663 15.2704C29.6427 15.4781 29.9718 15.762 30.2325 16.1039C30.4932 16.4458 30.6798 16.8382 30.7805 17.2562C30.8811 17.6742 30.8936 18.1086 30.8172 18.5317C30.7384 18.9716 30.5899 19.3879 30.4733 19.7145L30.4628 19.7444L30.4555 19.7628L30.4618 19.746C30.4334 19.8251 30.4072 19.8998 30.383 19.9702H33.47V8.57031H22.0707V12.8638ZM8.57031 22.0707H11.5439L11.5124 22.1584L11.5019 22.1867C11.3869 22.5038 11.2426 22.9039 11.1591 23.3254C11.1155 23.5449 11.0954 23.7684 11.0992 23.9922C11.1017 24.7086 11.3523 25.402 11.8086 25.9543C12.2648 26.5066 12.8984 26.8837 13.6014 27.0214C14.1112 27.1288 14.6396 27.1081 15.1394 26.9612C15.6392 26.8142 16.0947 26.5456 16.4652 26.1793C16.8357 25.8131 17.1096 25.3607 17.2624 24.8626C17.4151 24.3646 17.4419 23.8364 17.3404 23.3254C17.2564 22.9033 17.1121 22.5038 16.9976 22.1862L16.9871 22.1584L16.9556 22.0702H19.9707V26.4203C19.9707 26.6988 20.0813 26.9659 20.2782 27.1628C20.4751 27.3597 20.7422 27.4703 21.0207 27.4703H21.1451C21.8444 27.4703 22.4881 27.2398 22.9469 27.076L23.002 27.0561C23.3632 26.9275 23.6273 26.8356 23.8814 26.7899C24.1326 26.7449 24.3915 26.7979 24.6049 26.938C24.7481 27.0556 24.8577 27.2091 24.9224 27.3829C24.9872 27.5566 25.0048 27.7443 24.9735 27.9271C24.9422 28.1098 24.8631 28.281 24.7442 28.4233C24.6253 28.5656 24.4709 28.6738 24.2967 28.7371C24.1608 28.7708 24.0193 28.7754 23.8814 28.7508C23.6273 28.7046 23.3632 28.6132 23.002 28.4846L22.9469 28.4647C22.4881 28.3009 21.8444 28.0704 21.1451 28.0704H21.0202C20.7417 28.0704 20.4746 28.181 20.2777 28.3779C20.0808 28.5748 19.9702 28.8419 19.9702 29.1204V33.4705H8.57031V22.0707Z" fill="white"/>
</svg>
