<svg width="70" height="48" viewBox="0 0 70 48" fill="none" xmlns="http://www.w3.org/2000/svg">
<path d="M60.6735 36.9804C50.5145 48.4023 30.5922 45.5763 25.9745 31.3284C25.7106 30.6219 25.5787 29.7976 25.4468 29.0911C36.1335 26.9716 46.5564 20.0242 47.4799 11.6639C48.2716 4.12777 39.6958 1.8905 34.0225 6.12955C27.2939 11.1929 22.5442 18.6112 22.1484 26.5004C15.2877 27.3246 8.55905 25.6761 4.86487 19.6708C-1.33609 9.54435 6.97583 -4.11502 18.0584 -8.11858C19.2458 -8.47183 18.7181 -10.1204 17.5306 -9.7671C2.22616 -5.8811 -5.68995 13.1946 4.73293 24.4986C8.82292 28.8556 15.4197 30.2684 22.2803 29.5619C23.2039 37.569 30.1964 43.9276 38.5081 46.4004C48.1394 49.2264 56.9791 45.1053 62.6523 38.3933C63.576 37.3335 61.5968 36.0384 60.6735 36.9804ZM31.12 13.1946C33.2309 10.6041 36.0016 7.66032 39.5638 6.60056C42.9939 5.54079 44.1816 9.77985 44.3133 11.6639C44.4452 14.0189 42.5981 16.1384 40.883 17.787C37.3209 21.4371 31.3838 24.6165 25.3148 26.0294C25.7106 21.4371 28.2174 16.9627 31.12 13.1946Z" fill="#F62424"/>
<path d="M68.0596 32.6211C64.3654 32.6211 60.5393 32.8566 56.977 33.6809C55.5259 34.0341 56.1854 35.8004 57.6369 35.5649C60.5395 35.0939 63.574 35.2116 66.4766 35.3294C66.3446 36.86 66.2127 38.5085 65.9488 40.0392C65.6849 41.2168 64.7614 42.983 65.553 44.1606C65.9488 44.7495 66.6085 44.7495 67.2682 44.5138C68.8514 43.925 68.8514 41.4523 69.1153 40.157C69.5111 38.0373 69.6428 36.0357 69.6428 33.916C69.6428 33.2099 68.8512 32.6211 68.0596 32.6211Z" fill="#F62424"/>
</svg>
