<svg width="42" height="42" viewBox="0 0 42 42" fill="none" xmlns="http://www.w3.org/2000/svg">
<path d="M28.0078 10.5039C28.0078 12.3604 27.2703 14.1409 25.9576 15.4537C24.6448 16.7664 22.8643 17.5039 21.0078 17.5039C19.1513 17.5039 17.3708 16.7664 16.0581 15.4537C14.7453 14.1409 14.0078 12.3604 14.0078 10.5039C14.0078 8.64739 14.7453 6.86691 16.0581 5.55416C17.3708 4.2414 19.1513 3.50391 21.0078 3.50391C22.8643 3.50391 24.6448 4.2414 25.9576 5.55416C27.2703 6.86691 28.0078 8.64739 28.0078 10.5039ZM27.4443 23.6342C26.6166 23.6429 25.8448 23.6744 25.1728 23.7637C24.0476 23.9159 22.8156 24.2764 21.7988 25.2949C20.7803 26.3117 20.4198 27.5437 20.2693 28.6689C20.1328 29.6804 20.1328 30.9159 20.1328 32.2284V32.5294C20.1328 33.8419 20.1328 35.0774 20.2693 36.0889C20.3743 36.8782 20.5843 37.7199 21.0516 38.5039H21.0078C7.00781 38.5039 7.00781 34.9777 7.00781 30.6289C7.00781 26.2802 13.2763 22.7539 21.0078 22.7539C23.3283 22.7539 25.5176 23.0707 27.4443 23.6342Z" fill="white"/>
<path fill-rule="evenodd" clip-rule="evenodd" d="M28.8828 38.5C25.9953 38.5 24.5516 38.5 23.6556 37.6022C22.7578 36.7062 22.7578 35.2625 22.7578 32.375C22.7578 29.4875 22.7578 28.0437 23.6556 27.1477C24.5516 26.25 25.9953 26.25 28.8828 26.25C31.7703 26.25 33.2141 26.25 34.1101 27.1477C35.0078 28.0437 35.0078 29.4875 35.0078 32.375C35.0078 35.2625 35.0078 36.7062 34.1101 37.6022C33.2141 38.5 31.7703 38.5 28.8828 38.5ZM32.3268 31.0555C32.5183 30.864 32.6258 30.6044 32.6258 30.3336C32.6258 30.0629 32.5183 29.8032 32.3268 29.6117C32.1354 29.4203 31.8757 29.3127 31.6049 29.3127C31.3342 29.3127 31.0745 29.4203 30.8831 29.6117L27.5231 32.9717L26.8826 32.333C26.7878 32.2382 26.6752 32.163 26.5514 32.1117C26.4275 32.0604 26.2948 32.034 26.1607 32.034C26.0266 32.034 25.8939 32.0604 25.77 32.1117C25.6462 32.163 25.5336 32.2382 25.4388 32.333C25.344 32.4278 25.2688 32.5403 25.2175 32.6642C25.1662 32.7881 25.1398 32.9208 25.1398 33.0549C25.1398 33.1889 25.1662 33.3217 25.2175 33.4456C25.2688 33.5694 25.344 33.682 25.4388 33.7768L26.8003 35.1383C26.8951 35.2331 27.0076 35.3084 27.1315 35.3597C27.2553 35.4111 27.3881 35.4375 27.5222 35.4375C27.6563 35.4375 27.789 35.4111 27.9129 35.3597C28.0368 35.3084 28.1493 35.2331 28.2441 35.1383L32.3268 31.0555Z" fill="white"/>
</svg>
