<svg width="357" height="94" viewBox="0 0 357 94" fill="none" xmlns="http://www.w3.org/2000/svg">
<path d="M13.2578 0H18.5595V7.95251H13.2578V0Z" fill="white"/>
<path d="M45.8438 41.6396L49.5927 37.8906L54.8937 43.1916L51.1448 46.9406L45.8438 41.6396Z" fill="white"/>
<path d="M331.125 75.1239L334.874 71.375L340.175 76.676L336.426 80.425L331.125 75.1239Z" fill="white"/>
<path d="M347.125 88.1239L350.874 84.375L356.175 89.676L352.426 93.425L347.125 88.1239Z" fill="white"/>
<path d="M347.125 70.1239L350.874 66.375L356.175 71.676L352.426 75.425L347.125 70.1239Z" fill="white"/>
<path d="M331.125 88.1239L334.874 84.375L340.175 89.676L336.426 93.425L331.125 88.1239Z" fill="white"/>
<path d="M0 63.6211H5.30167V71.5736H0V63.6211Z" fill="white"/>
</svg>
