<svg width="380" height="356" viewBox="0 0 380 356" fill="none" xmlns="http://www.w3.org/2000/svg">
<path d="M377.878 341.852V310.964L348.742 294.143V327.209L321.606 342.875V310.388L292.971 326.92L265.334 310.965V280.655C266.175 280.433 266.797 279.675 266.797 278.764C266.797 278.586 266.766 278.416 266.721 278.252L293.22 262.954L293.47 262.81V229.167L264.836 245.7L236.698 229.455L208.562 245.699L180.926 229.744V197.835L209.562 181.302L180.926 164.769V131.702L152.04 148.38L151.79 148.524V180.436L126.041 165.57C126.085 165.406 126.117 165.236 126.117 165.058C126.117 164.148 125.495 163.389 124.654 163.167V100.37L152.54 84.27L152.79 84.127V50.483L123.904 67.161L123.654 67.305V99.796L96.0191 115.752L68.8801 100.083L96.2691 84.269L96.5191 84.126V50.482L67.6331 67.16L67.3831 67.304V131.706L41.6341 116.84C41.6781 116.676 41.7101 116.507 41.7101 116.328C41.7101 115.418 41.0881 114.659 40.2471 114.437V83.55L12.6111 67.595L39.7471 51.929L40.2471 52.218V51.64L40.7471 51.351L40.2471 51.063V18.573L13.4981 3.13004C13.5421 2.96604 13.5741 2.79603 13.5741 2.61803C13.5741 1.53403 12.6951 0.655029 11.6111 0.655029C10.5271 0.655029 9.6481 1.53403 9.6481 2.61803C9.6481 3.52803 10.2711 4.28703 11.1111 4.50903V34.818L-17.5249 51.352L10.6111 67.596L-16.7749 83.408L-17.0249 83.552V116.041L-17.5249 116.33L-17.0249 116.619V149.109L10.6001 165.058L-16.7969 180.875L-17.0469 181.018V214.66L11.8401 197.983L12.0901 197.839V165.917L12.1111 165.929V132.863L38.3541 117.711C38.5961 117.955 38.9041 118.13 39.2471 118.22V149.105L66.8831 165.059L39.4971 180.87L39.2471 181.014V213.516L13.0271 228.654C12.6711 228.295 12.1781 228.072 11.6331 228.072C10.5491 228.072 9.6701 228.951 9.6701 230.035C9.6701 230.945 10.2931 231.704 11.1331 231.926V294.686L-16.7979 310.813L-17.0479 310.957V344.6L-17.0029 344.574V376.511L11.1331 392.754V393.332L11.6341 393.043L12.1331 393.331V392.755L40.0191 376.655L40.2691 376.511V342.868L13.0261 358.597C12.6711 358.238 12.1781 358.015 11.6331 358.015C11.0881 358.015 10.5951 358.238 10.2391 358.597L-15.5259 343.72L11.1331 328.329V328.361L39.7681 311.829L68.4041 328.361V295.285L96.2681 279.198L96.5181 279.055V248.17C97.3581 247.948 97.9811 247.189 97.9811 246.279C97.9811 245.195 97.1021 244.316 96.0181 244.316C94.9341 244.316 94.0551 245.195 94.0551 246.279C94.0551 246.457 94.0861 246.627 94.1311 246.791L67.6321 262.09L67.3821 262.234V294.131L40.2681 278.478V214.066L67.8821 198.124L96.5181 214.656V181.59L122.761 166.439C123.003 166.683 123.311 166.857 123.654 166.948V197.835L150.403 213.278C150.359 213.442 150.327 213.612 150.327 213.79C150.327 213.968 150.358 214.137 150.403 214.301L123.904 229.601L123.654 229.745V294.684L97.5701 309.745C97.2141 309.246 96.6331 308.919 95.9741 308.919C94.8901 308.919 94.0111 309.798 94.0111 310.882C94.0111 311.792 94.6341 312.551 95.4741 312.773V344.599L123.61 328.354V360.266L152.746 377.087V343.443L125.138 327.504L152.29 311.828L178.54 326.982C178.496 327.146 178.464 327.316 178.464 327.494C178.464 328.578 179.343 329.457 180.427 329.457C181.512 329.457 182.39 328.578 182.39 327.494C182.39 326.584 181.767 325.826 180.927 325.603V262.81L208.563 246.854L235.699 262.522L208.313 278.334L208.063 278.477V310.966L207.563 311.255L208.063 311.544V343.456L180.177 359.555L179.927 359.698V393.34L208.813 376.663L209.063 376.519V344.61L236.199 360.276V360.853L236.699 360.564L265.335 377.097V345.633C265.678 345.542 265.987 345.368 266.23 345.123L292.472 360.273V393.33L320.608 377.086V377.093L349.494 360.416L349.744 360.272V328.362L375.494 343.228C375.449 343.393 375.418 343.562 375.418 343.741C375.418 344.825 376.297 345.704 377.381 345.704C378.465 345.704 379.344 344.825 379.344 343.741C379.341 342.832 378.719 342.074 377.878 341.852ZM68.3831 67.882L95.5191 52.215V83.548L68.3831 99.215V67.882ZM11.0891 197.259L-16.0479 212.925V181.594L11.0891 165.928V197.259ZM39.2691 344.598V375.931L12.1331 391.598V361.867C12.9731 361.645 13.5961 360.887 13.5961 359.976C13.5961 359.798 13.5641 359.628 13.5201 359.464L39.2691 344.598ZM11.1331 361.867V391.597L-16.0029 375.931V344.599L9.7451 359.465C9.7011 359.629 9.6691 359.798 9.6691 359.976C9.6701 360.887 10.2931 361.645 11.1331 361.867ZM320.607 343.444L293.471 359.111V327.785L320.607 312.119V343.444ZM264.334 341.852C263.991 341.943 263.683 342.117 263.441 342.361L237.699 327.498L264.334 312.12V341.852ZM237.198 294.72V263.387L262.947 278.253C262.903 278.417 262.871 278.586 262.871 278.764C262.871 279.674 263.493 280.432 264.333 280.654V310.387L237.198 294.72ZM264.334 276.874C263.991 276.965 263.683 277.139 263.44 277.384L237.698 262.522L264.334 247.143V276.874ZM236.698 295.587L263.834 311.254L251.507 318.371L236.699 326.92L209.563 311.253L221.89 304.136L236.698 295.587ZM237.198 328.364L262.947 343.231C262.903 343.395 262.871 343.564 262.871 343.742C262.871 343.92 262.902 344.09 262.947 344.254L237.198 359.12V328.364ZM292.471 262.232L266.228 277.382C265.986 277.138 265.677 276.964 265.334 276.873V246.567L292.471 230.9V262.232ZM152.79 211.9V182.167L179.927 197.834V229.167L154.178 214.301C154.222 214.137 154.254 213.968 154.254 213.79C154.254 212.881 153.631 212.122 152.79 211.9ZM152.79 215.682C153.133 215.591 153.442 215.417 153.684 215.173L179.425 230.034L152.79 245.41V215.682ZM180.427 196.968L153.29 181.301L166.599 173.617L180.426 165.634L207.562 181.301L180.427 196.968ZM152.79 149.102L179.927 133.434V164.768L152.79 180.435V149.102ZM124.654 67.882L151.79 52.215V83.548L124.654 99.215V67.882ZM123.654 132.283L114.777 137.408L96.5191 147.949V116.616L123.655 100.949L123.654 132.283ZM95.5191 180.435L81.9511 172.602L68.3831 164.769V133.438L81.9511 141.271L95.5191 149.104V180.435ZM68.3831 100.951L95.5191 116.617V147.949L81.9511 140.116L68.3831 132.283V100.951ZM39.2461 114.438C38.9041 114.528 38.5961 114.703 38.3531 114.946L12.1101 99.794V68.461L39.2461 84.1281V114.438ZM39.2461 19.151V50.485L12.1101 34.817V4.50903C12.4531 4.41803 12.7611 4.24403 13.0031 4.00003L39.2461 19.151ZM11.6101 35.684L38.7461 51.352L12.1111 66.73V66.729L11.6111 67.017L11.1111 66.729V66.73L-15.5249 51.351L11.6101 35.684ZM-16.0249 84.129L11.1111 68.462V99.795L-16.0249 115.462V84.129ZM-16.0249 117.194L11.1111 132.862V164.195L-16.0249 148.528V117.194ZM11.6111 131.996L-15.5249 116.328L-3.1979 109.211L11.6101 100.662L37.8601 115.817C37.8161 115.981 37.7841 116.151 37.7841 116.329C37.7841 116.507 37.8151 116.676 37.8601 116.841L11.6111 131.996ZM40.2461 118.219C40.5891 118.128 40.8971 117.954 41.1401 117.71L67.3831 132.861V164.192L40.2461 148.526V118.219ZM40.2461 181.591L67.3831 165.925V197.256L40.2461 212.922V181.591ZM12.1331 231.925C12.9731 231.703 13.5961 230.945 13.5961 230.034C13.5961 229.856 13.5651 229.687 13.5201 229.523L39.2681 214.657V245.989L12.1321 261.655L12.1331 231.925ZM39.2691 278.475L12.1331 294.141V262.81L39.2691 247.144V278.475ZM11.0891 327.199L-16.0479 342.866V311.533L11.0891 295.865V327.199ZM12.1331 295.297L39.2691 279.631V310.962L12.1331 326.628V295.297ZM68.3831 262.81L94.6261 247.66C94.8681 247.904 95.1771 248.078 95.5191 248.169V278.476L68.3831 294.142V262.81ZM67.4041 295.861V326.627L40.2681 310.961V279.63L67.3821 295.284V295.874L67.4041 295.861ZM95.5191 212.922L68.3831 197.256V165.925L81.9511 173.758L95.5191 181.591V212.922ZM96.5191 180.435V149.105L112.025 140.152L123.654 133.438V163.167C122.814 163.389 122.191 164.147 122.191 165.058C122.191 165.236 122.223 165.406 122.267 165.57L96.5191 180.435ZM124.654 197.258V166.949C124.997 166.858 125.305 166.684 125.547 166.44L151.79 181.591V211.9C151.448 211.99 151.14 212.165 150.897 212.408L124.654 197.258ZM124.654 230.324L150.897 215.173C151.139 215.417 151.447 215.592 151.79 215.682V245.988L151.29 246.277L151.291 246.278L124.654 261.656V230.324ZM124.654 295.297L151.79 279.631V310.962L124.654 326.628V295.297ZM151.79 278.475L124.654 294.141V262.81L151.79 247.144V278.475ZM96.4751 342.866V312.773C97.3151 312.551 97.9381 311.793 97.9381 310.882C97.9381 310.819 97.9251 310.76 97.9191 310.699L123.61 295.865V327.199L96.4751 342.866ZM151.746 375.354L124.61 359.687V328.354L151.746 344.021V375.354ZM179.927 325.603C179.584 325.694 179.276 325.868 179.034 326.112L152.79 310.962V279.632L179.927 295.299V325.603ZM152.79 278.475V247.142L179.927 262.81V294.141L152.79 278.475ZM180.427 261.944L153.29 246.276L180.425 230.61L180.927 230.9V230.898L207.563 246.276L180.427 261.944ZM236.698 230.609L263.834 246.276L237.198 261.655L236.698 261.944L236.198 261.655L209.562 246.276L236.698 230.609ZM209.063 279.054L236.199 263.387V294.72L209.063 310.387V279.054ZM208.063 375.94L180.927 391.606V360.275L208.063 344.609V375.94ZM209.063 343.454V312.12L236.199 327.787V359.121L209.063 343.454ZM237.699 359.987L263.441 345.124C263.683 345.368 263.992 345.542 264.334 345.633V375.365L237.699 359.987ZM265.334 341.852V312.12L292.471 327.786V359.118L266.722 344.252C266.766 344.088 266.797 343.92 266.797 343.742C266.797 342.832 266.175 342.074 265.334 341.852ZM293.471 391.597V360.273L320.607 344.606V375.932L293.471 391.597ZM348.742 359.695L321.606 375.361V344.029L348.742 328.363V359.695ZM349.742 327.208V295.875L376.878 311.542V341.852C376.536 341.943 376.228 342.116 375.986 342.36L349.742 327.208Z" fill="url(#paint0_linear_1011_2832)"/>
<defs>
<linearGradient id="paint0_linear_1011_2832" x1="117.163" y1="477.306" x2="628.721" y2="-260.925" gradientUnits="userSpaceOnUse">
<stop stop-color="#C8CACC"/>
<stop offset="0.1387" stop-color="#D5D6D7"/>
<stop offset="0.3812" stop-color="#E4E5E6"/>
<stop offset="0.5713" stop-color="#EAEBEB"/>
<stop offset="0.7471" stop-color="#EEEFEF"/>
<stop offset="0.9274" stop-color="#FAFAFB"/>
<stop offset="0.976" stop-color="white"/>
</linearGradient>
</defs>
</svg>
