<svg width="558" height="354" viewBox="0 0 558 354" fill="none" xmlns="http://www.w3.org/2000/svg">
<path d="M566.168 270.386L538.032 254.141L565.418 238.329L565.668 238.185V205.696L566.168 205.408L565.668 205.119V172.63L538.044 156.681L565.44 140.864L565.69 140.721V107.08L536.804 123.757L536.554 123.901V155.823L536.532 155.81V188.877L510.289 204.028C510.047 203.784 509.739 203.609 509.396 203.519V140.15L481.259 123.906V91.419L454.509 75.976C454.554 75.81 454.587 75.639 454.587 75.46C454.587 75.282 454.555 75.112 454.511 74.948L481.01 59.65L481.26 59.506V27.608L508.374 43.261V108.812L535.617 93.084C535.973 93.443 536.465 93.665 537.011 93.665C538.095 93.665 538.974 92.786 538.974 91.702C538.974 90.792 538.351 90.033 537.511 89.811V27.053L565.442 10.927L565.692 10.783V-22.862L537.51 -6.59103V-6.62303L508.875 9.90897L480.238 -6.62303V26.453L452.374 42.54L452.124 42.684V73.569C451.284 73.791 450.661 74.55 450.661 75.46C450.661 76.37 451.284 77.128 452.124 77.351V108.241L480.26 124.484V156.394L453.124 172.06V140.145L424.988 123.9V123.322L424.487 123.611L423.988 123.323V123.899L396.103 140L395.853 140.144V173.788L423.094 158.06C423.45 158.419 423.943 158.643 424.489 158.643C425.035 158.643 425.528 158.42 425.884 158.06L452.125 173.209V238.766L480.761 222.233L508.398 238.187L536.034 254.142L508.898 269.809L508.398 269.52V270.098L507.898 270.387L508.398 270.676V303.165L536.534 319.409V349.718C535.694 349.94 535.071 350.698 535.071 351.609C535.071 352.693 535.95 353.572 537.034 353.572C538.118 353.572 538.997 352.693 538.997 351.609C538.997 351.431 538.966 351.261 538.921 351.096L565.42 335.797L565.67 335.653V302.01L537.534 318.255V286.921L566.168 270.386ZM537.555 124.478L564.691 108.812V140.143L537.555 155.809V124.478ZM564.668 237.608L537.532 253.275V221.942L564.668 206.275V237.608ZM564.668 204.543L537.532 188.876V157.542L564.668 173.21V204.543ZM537.032 189.742L564.168 205.409L551.841 212.526L537.033 221.076L510.783 205.921C510.827 205.757 510.859 205.588 510.859 205.409C510.859 205.23 510.827 205.061 510.783 204.897L537.032 189.742ZM508.397 173.214V203.519C508.054 203.61 507.745 203.784 507.502 204.029L494.828 196.712L481.26 188.879V157.548L494.828 165.381L508.397 173.214ZM509.374 43.261L536.51 27.595V58.927L509.374 74.593V43.261ZM509.374 107.08V75.749L536.51 60.083V89.812C535.67 90.035 535.048 90.793 535.048 91.703C535.048 91.881 535.079 92.051 535.124 92.215L509.374 107.08ZM537.555 -5.46203L564.691 -21.129V10.205L537.555 25.872V-5.46203ZM536.51 26.44L509.374 42.106V10.775L536.51 -4.89103V26.44ZM481.238 -4.89103L508.374 10.775V42.106L481.26 26.453V25.863L481.239 25.875V-4.89103H481.238ZM480.26 27.595V58.927L454.018 74.077C453.776 73.833 453.467 73.659 453.125 73.568V43.261L480.26 27.595ZM453.124 107.662V77.35C453.465 77.26 453.772 77.087 454.015 76.845L480.26 91.997V123.328L453.124 107.662ZM508.397 140.727V172.058L494.829 164.225L481.261 156.392V125.06L508.397 140.727ZM396.853 172.054V140.721L423.989 125.054V154.788C423.149 155.01 422.526 155.768 422.526 156.679C422.526 156.857 422.557 157.025 422.601 157.189L396.853 172.054ZM424.988 154.788V125.055L452.124 140.722V172.053L426.376 157.188C426.42 157.025 426.451 156.856 426.451 156.678C426.451 155.769 425.829 155.01 424.988 154.788ZM453.124 173.214L480.26 157.548V188.877L453.124 204.544V173.214ZM453.124 205.7L480.26 190.034V221.367L453.124 237.034V205.7ZM481.26 221.365V190.034L494.828 197.867L507.009 204.899C506.965 205.063 506.933 205.231 506.933 205.409C506.933 206.319 507.556 207.077 508.396 207.3V237.031L481.26 221.365ZM509.397 207.299C509.739 207.208 510.048 207.034 510.29 206.79L536.533 221.941V253.274L509.397 237.607V207.299ZM536.532 255.007L537.032 254.719L537.532 255.008V255.007L564.168 270.386L537.033 286.053L509.897 270.386L536.532 255.007ZM509.397 271.253L536.533 286.92V318.253L509.397 302.586V271.253ZM564.668 303.741V335.074L538.425 350.225C538.183 349.981 537.875 349.807 537.533 349.717V319.408L564.668 303.741ZM398.316 107.946C398.316 107.768 398.284 107.598 398.24 107.434L424.739 92.135L424.989 91.991V27.051L451.074 11.99C451.43 12.489 452.01 12.816 452.669 12.816C453.753 12.816 454.632 11.937 454.632 10.853C454.632 9.94296 454.009 9.18397 453.169 8.96197V-22.864L425.032 -6.61703V-38.529L395.897 -55.35V-21.706L423.505 -5.76703L396.353 9.90897L370.103 -5.24503C370.147 -5.40903 370.179 -5.57803 370.179 -5.75703C370.179 -6.84103 369.3 -7.72003 368.216 -7.72003C367.132 -7.72003 366.253 -6.84103 366.253 -5.75703C366.253 -4.84703 366.875 -4.08803 367.716 -3.86603V25.862L367.715 58.929L340.08 74.883L312.944 59.216L340.33 43.403L340.58 43.259V10.772L341.08 10.483L340.58 10.194V-21.717L368.466 -37.816L368.716 -37.96V-71.603L339.83 -54.925L339.58 -54.782V-22.872L312.444 -38.539V-39.116L311.944 -38.827L283.308 -55.361V-23.897C282.965 -23.806 282.656 -23.631 282.413 -23.387L256.171 -38.536V-71.594L228.035 -55.349V-55.356L199.15 -38.679L198.9 -38.535V-6.62603L171.764 -22.292V-22.869L171.264 -22.581L170.764 -22.869V-22.292L143.129 -6.33903L114.492 -22.87V10.194L87.3568 25.86V-6.05203L58.2208 -22.873L30.0849 -39.117V-6.05003L3.84184 9.09997C3.48584 8.74197 2.99385 8.51897 2.44885 8.51897C1.36485 8.51897 0.48584 9.39797 0.48584 10.482C0.48584 11.566 1.36485 12.445 2.44885 12.445C2.99385 12.445 3.48684 12.222 3.84184 11.864L30.0849 27.015V60.082L58.9708 43.403L59.2208 43.259V11.348L86.3568 27.014V60.078L113.599 44.35C113.841 44.594 114.15 44.769 114.492 44.859V75.744L143.629 92.564V60.078L171.765 76.322V42.679L144.13 26.725L171.263 11.06L199.9 27.594V-5.47103L227.036 -21.137V42.687L199.15 58.787L198.9 58.931V92.576L226.143 76.847C226.499 77.206 226.991 77.428 227.536 77.428C228.62 77.428 229.499 76.549 229.499 75.465C229.499 74.555 228.876 73.797 228.036 73.574V43.262L255.922 27.161L256.172 27.017V-4.89403L283.309 10.772V41.082C282.469 41.304 281.846 42.062 281.846 42.973C281.846 43.151 281.878 43.32 281.922 43.485L255.423 58.784L255.173 58.927V92.569L283.809 76.037L311.946 92.282L340.082 76.038L368.218 92.282L395.855 76.327V106.056C395.015 106.278 394.392 107.036 394.392 107.947C394.392 109.031 395.271 109.91 396.355 109.91C397.437 109.909 398.316 109.03 398.316 107.946ZM423.988 91.414L397.745 106.564C397.503 106.32 397.195 106.146 396.852 106.055V75.749L397.352 75.46L423.988 60.082V91.414ZM368.716 27.595L395.853 43.261V74.594L368.716 58.927V27.595ZM396.853 43.261L423.989 27.595V58.927L396.853 74.593V43.261ZM423.988 26.44L396.852 42.106V10.775L423.988 -4.89103V26.44ZM452.168 -21.129V8.96497C451.328 9.18697 450.706 9.94496 450.706 10.855C450.706 10.918 450.719 10.977 450.725 11.039L425.033 25.872V-5.46203L452.168 -21.129ZM396.897 -53.618L424.033 -37.951V-6.61803L396.897 -22.285V-53.618ZM368.717 -3.86603C369.059 -3.95703 369.368 -4.13103 369.61 -4.37503L395.853 10.776V42.106L368.717 26.44V-3.86603ZM311.945 26.15L284.809 10.483L297.136 3.36597L311.944 -5.18403L339.08 10.483L326.753 17.6L311.945 26.15ZM284.309 -20.115C284.651 -20.206 284.959 -20.38 285.202 -20.624L310.945 -5.76203L284.309 9.61697V-20.115ZM311.444 -6.62703L285.695 -21.493C285.739 -21.657 285.771 -21.827 285.771 -22.005C285.771 -22.183 285.739 -22.352 285.695 -22.516L311.444 -37.382V-6.62703ZM311.444 27.016V58.35L285.695 43.483C285.739 43.319 285.771 43.15 285.771 42.973C285.771 42.063 285.149 41.305 284.308 41.082V11.349L311.444 27.016ZM284.309 44.863C284.652 44.772 284.96 44.598 285.203 44.353L310.945 59.216L284.309 74.594V44.863ZM339.58 42.682L312.444 58.35V27.016L339.58 11.349V42.682ZM340.58 -54.203L367.716 -69.869V-38.537L340.58 -22.871V-54.203ZM339.58 -21.716V9.61697L312.444 -6.05003V-37.383L339.58 -21.716ZM310.944 -38.249L285.202 -23.386C284.96 -23.631 284.651 -23.805 284.308 -23.896V-53.628L310.944 -38.249ZM255.172 -69.861V-38.535L228.036 -22.869V-54.194L255.172 -69.861ZM170.765 -21.138V10.193L143.629 25.859V-5.47203L170.765 -21.138ZM115.492 -21.138L142.629 -5.47203V25.859L129.061 18.026L115.493 10.193V-21.138H115.492ZM142.629 58.345L129.061 50.512L116.88 43.48C116.925 43.316 116.956 43.147 116.956 42.968C116.956 42.058 116.333 41.299 115.493 41.077V11.347L129.061 19.18L142.629 27.013V58.345ZM86.3568 25.859L59.2208 10.192V-21.141L86.3568 -5.47403V25.859ZM31.0849 -37.385L58.2208 -21.717V9.61597L31.0849 -6.05103V-37.385ZM4.33585 9.96997L30.5849 -5.18503L57.7208 10.482L45.3938 17.599L30.5849 26.149L4.33585 10.994C4.37985 10.83 4.41185 10.66 4.41185 10.482C4.41185 10.304 4.37985 10.134 4.33585 9.96997ZM58.2208 42.681L31.0849 58.349V27.015L58.2208 11.348V42.681ZM87.3568 58.345V27.014L114.493 11.348V41.078C113.653 41.3 113.03 42.059 113.03 42.969C113.03 43.147 113.062 43.316 113.106 43.481L87.3568 58.345ZM142.629 90.833L115.492 75.167V44.86C115.835 44.77 116.143 44.595 116.386 44.351L129.061 51.668L142.629 59.501V90.833ZM170.765 74.59L143.629 58.923V27.591L170.765 43.257V74.59ZM198.9 25.862L171.764 10.195V-21.138L198.9 -5.47103V25.862ZM199.9 -6.62603V-37.957L227.036 -53.623V-22.292L199.9 -6.62603ZM255.172 -37.374V-6.04903L228.036 9.61697V-21.708L255.172 -37.374ZM199.9 90.842V59.508L227.036 43.841V73.573C226.196 73.795 225.573 74.553 225.573 75.464C225.573 75.643 225.605 75.812 225.649 75.976L199.9 90.842ZM255.172 26.439L228.036 42.107V10.773L255.172 -4.89403V26.439ZM256.172 -37.38L281.921 -22.515C281.877 -22.351 281.845 -22.182 281.845 -22.005C281.845 -21.095 282.468 -20.336 283.308 -20.114V9.61697L256.172 -6.04903V-37.38ZM256.172 59.506L282.415 44.355C282.657 44.599 282.966 44.773 283.308 44.864V75.171L256.171 90.837V59.506H256.172ZM311.944 91.128L284.808 75.461L311.444 60.083L311.944 59.794L312.444 60.083L339.08 75.461L311.944 91.128ZM341.08 75.461L368.215 59.794L395.352 75.461L368.215 91.128L341.08 75.461Z" fill="url(#paint0_linear_1011_2826)"/>
<defs>
<linearGradient id="paint0_linear_1011_2826" x1="-60.8384" y1="609.306" x2="450.72" y2="-128.925" gradientUnits="userSpaceOnUse">
<stop stop-color="#C8CACC"/>
<stop offset="0.1387" stop-color="#D5D6D7"/>
<stop offset="0.3812" stop-color="#E4E5E6"/>
<stop offset="0.5713" stop-color="#EAEBEB"/>
<stop offset="0.7471" stop-color="#EEEFEF"/>
<stop offset="0.9274" stop-color="#FAFAFB"/>
<stop offset="0.976" stop-color="white"/>
</linearGradient>
</defs>
</svg>
