<svg width="32" height="33" viewBox="0 0 32 33" fill="none" xmlns="http://www.w3.org/2000/svg">
<g clip-path="url(#clip0_1311_2057)">
<path d="M0 4.00001C0 3.60218 0.158035 3.22065 0.43934 2.93935C0.720644 2.65804 1.10218 2.50001 1.5 2.50001H10.006C12.46 2.50001 14.64 3.68001 16.006 5.50201C16.7042 4.56855 17.6108 3.81106 18.6535 3.28987C19.6963 2.76869 20.8463 2.49822 22.012 2.50001H30.502C30.8998 2.50001 31.2814 2.65804 31.5627 2.93935C31.844 3.22065 32.002 3.60218 32.002 4.00001V25C32.002 25.3978 31.844 25.7794 31.5627 26.0607C31.2814 26.342 30.8998 26.5 30.502 26.5H21.488C20.8971 26.5 20.3119 26.6164 19.7659 26.8425C19.2199 27.0687 18.7239 27.4002 18.306 27.818L17.062 29.06C16.7808 29.3409 16.3995 29.4987 16.002 29.4987C15.6045 29.4987 15.2233 29.3409 14.942 29.06L13.698 27.818C13.2801 27.4002 12.7841 27.0687 12.2381 26.8425C11.6921 26.6164 11.1069 26.5 10.516 26.5H1.5C1.10218 26.5 0.720644 26.342 0.43934 26.0607C0.158035 25.7794 0 25.3978 0 25L0 4.00001ZM14.502 24.648L14.51 14.502L14.506 9.99601C14.5049 8.80323 14.0304 7.65966 13.1866 6.81661C12.3428 5.97357 11.1988 5.50001 10.006 5.50001H3V23.5H10.514C11.9249 23.5 13.3071 23.8979 14.502 24.648ZM17.51 10L17.502 24.644C18.6963 23.8962 20.0769 23.4997 21.486 23.5H29V5.50001H22.01C20.8165 5.50001 19.6719 5.97412 18.828 6.81803C17.9841 7.66194 17.51 8.80654 17.51 10Z" fill="#369458"/>
</g>
<defs>
<clipPath id="clip0_1311_2057">
<rect width="32" height="32" fill="white" transform="translate(0 0.5)"/>
</clipPath>
</defs>
</svg>
