<svg width="48" height="48" viewBox="0 0 48 48" fill="none" xmlns="http://www.w3.org/2000/svg">
<path d="M24 44C21.2333 44 18.6333 43.4747 16.2 42.424C13.7667 41.3733 11.65 39.9487 9.85 38.15C8.05 36.35 6.62533 34.2333 5.576 31.8C4.52667 29.3667 4.00133 26.7667 4 24C4 21.2333 4.52533 18.6333 5.576 16.2C6.62667 13.7667 8.05133 11.65 9.85 9.85C11.65 8.05 13.7667 6.62533 16.2 5.576C18.6333 4.52667 21.2333 4.00133 24 4C26.7667 4 29.3667 4.52533 31.8 5.576C34.2333 6.62667 36.35 8.05133 38.15 9.85C39.95 11.65 41.3753 13.7667 42.426 16.2C43.4767 18.6333 44.0013 21.2333 44 24C44 26.7667 43.4747 29.3667 42.424 31.8C41.3733 34.2333 39.9487 36.35 38.15 38.15C36.35 39.95 34.2333 41.3753 31.8 42.426C29.3667 43.4767 26.7667 44.0013 24 44ZM24 40C28.4667 40 32.25 38.45 35.35 35.35C38.45 32.25 40 28.4667 40 24C40 23.7667 39.9913 23.5247 39.974 23.274C39.9567 23.0233 39.9487 22.8153 39.95 22.65C39.7833 23.6167 39.3333 24.4167 38.6 25.05C37.8667 25.6833 37 26 36 26H32C30.9 26 29.958 25.6087 29.174 24.826C28.39 24.0433 27.9987 23.1013 28 22V20H20V16C20 14.9 20.392 13.958 21.176 13.174C21.96 12.39 22.9013 11.9987 24 12H26C26 11.2333 26.2087 10.5587 26.626 9.976C27.0433 9.39333 27.5513 8.918 28.15 8.55C27.4833 8.38333 26.8087 8.25 26.126 8.15C25.4433 8.05 24.7347 8 24 8C19.5333 8 15.75 9.55 12.65 12.65C9.55 15.75 8 19.5333 8 24H18C20.2 24 22.0833 24.7833 23.65 26.35C25.2167 27.9167 26 29.8 26 32V34H20V39.5C20.6667 39.6667 21.3253 39.792 21.976 39.876C22.6267 39.96 23.3013 40.0013 24 40Z" fill="#369458"/>
</svg>
