<svg width="283" height="450" viewBox="0 0 283 450" fill="none" xmlns="http://www.w3.org/2000/svg">
<path d="M145 36C-25 199.5 70 280 -167 348C-404 416 -479 208.313 -479 36C-479 -136.313 -339.313 -276 -167 -276C5.31284 -276 315 -127.5 145 36Z" fill="white" fill-opacity="0.15"/>
<path d="M-167 -320C-71.6631 -320 58.0692 -279.992 143.557 -216.669C186.212 -185.073 224.208 -142.952 235.245 -90.8447C247.051 -35.1108 225.679 19.4529 175.501 67.7129C96.7649 143.438 82.4573 195.155 52.6318 249.102C37.0314 277.319 17.5222 304.583 -16.3174 329.157C-49.1545 353.003 -93.0548 372.559 -154.865 390.294C-220.427 409.105 -278.537 409.877 -328.848 394.17C-379.375 378.395 -418.304 347.153 -447.165 308.397C-503.603 232.609 -523 126.589 -523 36C-523 -160.613 -363.613 -320 -167 -320Z" stroke="white" stroke-opacity="0.06" stroke-width="88"/>
</svg>
