<svg width="131" height="660" viewBox="0 0 131 660" fill="none" xmlns="http://www.w3.org/2000/svg">
<path d="M712 400C542 563.5 637 644 400 712C163 780 88 572.313 88 400C88 227.687 227.687 88 400 88C572.313 88 882 236.5 712 400Z" fill="white" fill-opacity="0.15"/>
<path d="M400 44C495.337 44 625.069 84.0083 710.557 147.331C753.212 178.927 791.208 221.048 802.245 273.155C814.051 328.889 792.679 383.453 742.501 431.713C663.765 507.438 649.457 559.155 619.632 613.102C604.031 641.319 584.522 668.583 550.683 693.157C517.845 717.003 473.945 736.559 412.135 754.294C346.573 773.105 288.463 773.877 238.152 758.17C187.625 742.395 148.696 711.153 119.835 672.397C63.3967 596.609 44 490.589 44 400C44 203.387 203.387 44 400 44Z" stroke="white" stroke-opacity="0.06" stroke-width="88"/>
</svg>
