<svg width="32" height="32" viewBox="0 0 32 32" fill="none" xmlns="http://www.w3.org/2000/svg">
<g clip-path="url(#clip0_4286_3067)">
<path d="M25.3359 9.33333C25.3359 9.33333 18.6693 18.6667 8.66927 18.6667M8.66927 18.6667C6.0026 18.6667 1.33594 20 1.33594 25.3333V30.6667H16.0026V25.3333C16.0026 22 20.0026 24 25.3359 14.6667L23.3359 12.6667M8.66927 18.6667C9.90695 18.6667 11.0939 18.175 11.9691 17.2998C12.8443 16.4247 13.3359 15.2377 13.3359 14C13.3359 12.7623 12.8443 11.5753 11.9691 10.7002C11.0939 9.825 9.90695 9.33333 8.66927 9.33333C7.43159 9.33333 6.24461 9.825 5.36944 10.7002C4.49427 11.5753 4.0026 12.7623 4.0026 14C4.0026 15.2377 4.49427 16.4247 5.36944 17.2998C6.24461 18.175 7.43159 18.6667 8.66927 18.6667ZM4.0026 6.66667V2.66667H30.6693V21.3333H26.6693M14.6693 1.33333H20.0026V4H14.6693V1.33333Z" stroke="white" stroke-width="2.16667"/>
</g>
<defs>
<clipPath id="clip0_4286_3067">
<rect width="32" height="32" fill="white"/>
</clipPath>
</defs>
</svg>
