<svg width="32" height="32" viewBox="0 0 32 32" fill="none" xmlns="http://www.w3.org/2000/svg">
<g clip-path="url(#clip0_4286_3037)">
<path fill-rule="evenodd" clip-rule="evenodd" d="M22.2263 1.42857C22.2263 1.04969 22.0758 0.686328 21.8079 0.418419C21.54 0.15051 21.1767 0 20.7978 0C20.4189 0 20.0555 0.15051 19.7876 0.418419C19.5197 0.686328 19.3692 1.04969 19.3692 1.42857V3.25714C19.3692 3.63602 19.5197 3.99939 19.7876 4.2673C20.0555 4.5352 20.4189 4.68571 20.7978 4.68571C21.1767 4.68571 21.54 4.5352 21.8079 4.2673C22.0758 3.99939 22.2263 3.63602 22.2263 3.25714V1.42857ZM29.4423 5.33943C29.5813 5.20823 29.6926 5.05047 29.7695 4.87549C29.8465 4.70051 29.8875 4.51187 29.8902 4.32075C29.8929 4.12963 29.8572 3.9399 29.7853 3.76281C29.7134 3.58573 29.6066 3.42488 29.4714 3.2898C29.3361 3.15472 29.1752 3.04815 28.998 2.9764C28.8208 2.90466 28.6311 2.86919 28.4399 2.87212C28.2488 2.87504 28.0602 2.91629 27.8853 2.99342C27.7104 3.07055 27.5528 3.18199 27.4218 3.32114L26.1303 4.61257C25.9912 4.74361 25.8797 4.90125 25.8026 5.07614C25.7255 5.25103 25.6842 5.43962 25.6813 5.63074C25.6784 5.82186 25.7139 6.01163 25.7856 6.1888C25.8573 6.36596 25.9639 6.52693 26.099 6.66217C26.2341 6.7974 26.3949 6.90416 26.572 6.9761C26.7491 7.04805 26.9388 7.08372 27.13 7.08102C27.3211 7.07831 27.5097 7.03728 27.6847 6.96034C27.8597 6.88341 28.0174 6.77215 28.1486 6.63314L29.4423 5.33943ZM12.2538 3.32114C12.5216 3.05385 12.8845 2.90373 13.2629 2.90373C13.6413 2.90373 14.0042 3.05385 14.2721 3.32114L15.5658 4.61257C15.6984 4.74524 15.8037 4.90275 15.8755 5.07609C15.9473 5.24944 15.9842 5.43523 15.9842 5.62286C15.9842 5.81048 15.9473 5.99627 15.8755 6.16962C15.8037 6.34297 15.6984 6.50047 15.5658 6.63314C15.4331 6.76582 15.2756 6.87106 15.1022 6.94286C14.9289 7.01466 14.7431 7.05162 14.5555 7.05162C14.3679 7.05162 14.1821 7.01466 14.0087 6.94286C13.8354 6.87106 13.6779 6.76582 13.5452 6.63314L12.2515 5.33943C11.9842 5.0716 11.8341 4.70867 11.8341 4.33029C11.8341 3.9519 11.9865 3.58897 12.2538 3.32114ZM19.2229 14.176C18.7167 13.9158 18.2897 13.5244 17.9865 13.0427C17.6833 12.561 17.5151 12.0067 17.4995 11.4377C17.5048 11.0203 17.5929 10.6082 17.7587 10.2251C17.9245 9.84203 18.1646 9.49567 18.4653 9.2061C18.7659 8.91652 19.121 8.6895 19.51 8.53818C19.899 8.38686 20.3142 8.31425 20.7315 8.32457C21.5641 8.31967 22.3649 8.64421 22.9593 9.2274C23.5536 9.81059 23.8932 10.6051 23.9041 11.4377C23.8881 12.5691 23.1955 13.6709 22.1806 14.176C21.9436 14.2957 21.7443 14.4786 21.6047 14.7045C21.4652 14.9304 21.3908 15.1905 21.3898 15.456V16.7863H20.0138V15.4537C20.0128 15.1882 19.9384 14.9281 19.7988 14.7022C19.6592 14.4763 19.4599 14.2957 19.2229 14.176ZM14.6423 11.4537C14.6453 10.6622 14.8046 9.87897 15.1111 9.14913C15.4175 8.41929 15.8651 7.75715 16.4281 7.20073C16.9911 6.64431 17.6584 6.20456 18.3918 5.90672C19.1252 5.60888 19.9102 5.45882 20.7018 5.46514C21.4933 5.45882 22.2783 5.60888 23.0117 5.90672C23.7451 6.20456 24.4125 6.64431 24.9755 7.20073C25.5385 7.75715 25.986 8.41929 26.2925 9.14913C26.5989 9.87897 26.7582 10.6622 26.7612 11.4537V11.4651C26.7418 12.4036 26.5045 13.3246 26.0682 14.1556C25.6319 14.9867 25.0084 15.7049 24.2469 16.2537V17.7577C24.2315 18.261 24.0213 18.7387 23.6606 19.0901C23.2998 19.4414 22.8168 19.639 22.3132 19.6411H19.0903C18.5872 19.6384 18.1047 19.4406 17.7444 19.0893C17.3842 18.738 17.1743 18.2607 17.1589 17.7577V16.2537C16.3975 15.7049 15.774 14.9867 15.3376 14.1556C14.9013 13.3246 14.664 12.4036 14.6446 11.4651L14.6423 11.4537ZM27.3143 11.4469C27.3143 10.6583 27.9543 10.0183 28.7429 10.0183H30.5715C30.9504 10.0183 31.3137 10.1688 31.5816 10.4367C31.8496 10.7046 32.0001 11.068 32.0001 11.4469C32.0001 11.8257 31.8496 12.1891 31.5816 12.457C31.3137 12.7249 30.9504 12.8754 30.5715 12.8754H28.7429C28.364 12.8754 28.0007 12.7249 27.7328 12.457C27.4649 12.1891 27.3143 11.8257 27.3143 11.4469ZM11.0263 10.0183C10.6475 10.0183 10.2841 10.1688 10.0162 10.4367C9.74828 10.7046 9.59777 11.068 9.59777 11.4469C9.59777 11.8257 9.74828 12.1891 10.0162 12.457C10.2841 12.7249 10.6475 12.8754 11.0263 12.8754H12.8549C13.2338 12.8754 13.5972 12.7249 13.8651 12.457C14.133 12.1891 14.2835 11.8257 14.2835 11.4469C14.2835 11.068 14.133 10.7046 13.8651 10.4367C13.5972 10.1688 13.2338 10.0183 12.8549 10.0183H11.0263ZM9.53834 21.3943H9.53377C7.84705 21.4038 6.19246 21.8564 4.73582 22.7069C3.27918 23.5574 2.07168 24.7758 1.23434 26.24C0.442125 27.647 0.0176015 29.2311 5.71489e-05 30.8457C-0.00145334 30.9968 0.0269924 31.1466 0.0837497 31.2866C0.140507 31.4266 0.22445 31.5539 0.330725 31.6612C0.436999 31.7686 0.563498 31.8538 0.702906 31.9119C0.842314 31.9701 0.991866 32 1.14291 32H17.9292C18.0802 32 18.2298 31.9701 18.3692 31.9119C18.5086 31.8538 18.6351 31.7686 18.7414 31.6612C18.8477 31.5539 18.9316 31.4266 18.9884 31.2866C19.0451 31.1466 19.0736 30.9968 19.0721 30.8457C19.0527 29.2315 18.6266 27.6482 17.8332 26.2423C16.9968 24.7779 15.7903 23.559 14.3345 22.7077C12.8787 21.8565 11.2247 21.405 9.53834 21.3943ZM12.6881 15.4194C13.5109 15.4194 14.2721 15.1726 14.9075 14.7474C14.8282 15.6984 14.4981 16.6112 13.9509 17.393C13.4036 18.1747 12.6588 18.7972 11.7924 19.1971C10.926 19.597 9.96901 19.7599 9.0191 19.6692C8.06919 19.5785 7.16034 19.2374 6.38528 18.6808C5.61021 18.1242 4.99666 17.3719 4.60723 16.5008C4.2178 15.6296 4.06642 14.6708 4.16854 13.722C4.27066 12.7733 4.62262 11.8686 5.18852 11.1003C5.75442 10.332 6.514 9.7275 7.38977 9.34857C7.02315 9.95535 6.82438 10.6487 6.81381 11.3575C6.80324 12.0664 6.98126 12.7653 7.32963 13.3827C7.678 14.0002 8.1842 14.5139 8.79641 14.8714C9.40862 15.2289 10.1048 15.4172 10.8138 15.4171L12.6881 15.4194Z" fill="white"/>
</g>
<defs>
<clipPath id="clip0_4286_3037">
<rect width="32" height="32" fill="white"/>
</clipPath>
</defs>
</svg>
