<svg width="27" height="27" viewBox="0 0 27 27" fill="none" xmlns="http://www.w3.org/2000/svg">
<path fill-rule="evenodd" clip-rule="evenodd" d="M12.3307 0C9.14016 0.240412 6.14158 1.61673 3.87915 3.87915C1.61673 6.14158 0.240412 9.14016 0 12.3307H3.97333C4.10501 12.3307 4.23539 12.3566 4.35704 12.407C4.47869 12.4574 4.58922 12.5312 4.68233 12.6243C4.77543 12.7174 4.84929 12.828 4.89968 12.9496C4.95007 13.0713 4.976 13.2017 4.976 13.3333C4.976 13.465 4.95007 13.5954 4.89968 13.717C4.84929 13.8387 4.77543 13.9492 4.68233 14.0423C4.58922 14.1354 4.47869 14.2093 4.35704 14.2597C4.23539 14.3101 4.10501 14.336 3.97333 14.336H0C0.240412 17.5265 1.61673 20.5251 3.87915 22.7875C6.14158 25.0499 9.14016 26.4263 12.3307 26.6667V22.6933C12.3307 22.4274 12.4363 22.1724 12.6243 21.9843C12.8124 21.7963 13.0674 21.6907 13.3333 21.6907C13.5993 21.6907 13.8543 21.7963 14.0423 21.9843C14.2304 22.1724 14.336 22.4274 14.336 22.6933V26.6667C17.5265 26.4263 20.5251 25.0499 22.7875 22.7875C25.0499 20.5251 26.4263 17.5265 26.6667 14.336H22.6933C22.4274 14.336 22.1724 14.2304 21.9843 14.0423C21.7963 13.8543 21.6907 13.5993 21.6907 13.3333C21.6907 13.0674 21.7963 12.8124 21.9843 12.6243C22.1724 12.4363 22.4274 12.3307 22.6933 12.3307H26.6667C26.4263 9.14016 25.0499 6.14158 22.7875 3.87915C20.5251 1.61673 17.5265 0.240412 14.336 0V3.97333C14.336 4.23926 14.2304 4.49429 14.0423 4.68233C13.8543 4.87036 13.5993 4.976 13.3333 4.976C13.0674 4.976 12.8124 4.87036 12.6243 4.68233C12.4363 4.49429 12.3307 4.23926 12.3307 3.97333V0ZM9.656 13.3333C9.656 12.78 10.1053 12.3307 10.6587 12.3307H12.3307V10.6587C12.3307 10.3927 12.4363 10.1377 12.6243 9.94967C12.8124 9.76164 13.0674 9.656 13.3333 9.656C13.5993 9.656 13.8543 9.76164 14.0423 9.94967C14.2304 10.1377 14.336 10.3927 14.336 10.6587V12.3307H16.008C16.2739 12.3307 16.529 12.4363 16.717 12.6243C16.905 12.8124 17.0107 13.0674 17.0107 13.3333C17.0107 13.5993 16.905 13.8543 16.717 14.0423C16.529 14.2304 16.2739 14.336 16.008 14.336H14.336V16.008C14.336 16.2739 14.2304 16.529 14.0423 16.717C13.8543 16.905 13.5993 17.0107 13.3333 17.0107C13.0674 17.0107 12.8124 16.905 12.6243 16.717C12.4363 16.529 12.3307 16.2739 12.3307 16.008V14.336H10.6587C10.5269 14.3364 10.3964 14.3107 10.2745 14.2604C10.1527 14.2101 10.0421 14.1363 9.94889 14.0431C9.85571 13.9499 9.78187 13.8393 9.73161 13.7175C9.68134 13.5956 9.65565 13.4651 9.656 13.3333Z" fill="white"/>
</svg>
