<svg width="23" height="23" viewBox="0 0 23 23" fill="none" xmlns="http://www.w3.org/2000/svg">
<g clip-path="url(#clip0_4547_3883)">
<path d="M22.7688 5.93975L20.0376 3.83525C19.852 3.71615 19.6502 3.62436 19.4384 3.5627C19.2277 3.4939 19.008 3.45594 18.7864 3.45H10.925L11.8461 9.2H18.7864C18.975 9.2 19.2108 9.15745 19.4373 9.0873C19.6639 9.01715 19.8824 8.92055 20.0364 8.8159L22.7677 6.7091C22.923 6.60445 23 6.4653 23 6.325C23 6.1847 22.9229 6.04555 22.7688 5.93975ZM9.775 1.15H8.625C8.4725 1.15 8.32625 1.21058 8.21841 1.31842C8.11058 1.42625 8.05 1.5725 8.05 1.725V5.75H4.2136C4.0227 5.75 3.7881 5.79255 3.56155 5.86385C3.33385 5.93285 3.1165 6.0283 2.9624 6.13525L0.23115 8.23975C0.0759 8.3444 0 8.4847 0 8.625C0 8.76415 0.0759 8.9033 0.23115 9.01025L2.9624 11.1171C3.1165 11.2217 3.33385 11.3183 3.56155 11.3873C3.7881 11.4575 4.0227 11.5 4.2136 11.5H8.05V21.275C8.05 21.4275 8.11058 21.5738 8.21841 21.6816C8.32625 21.7894 8.4725 21.85 8.625 21.85H9.775C9.9275 21.85 10.0738 21.7894 10.1816 21.6816C10.2894 21.5738 10.35 21.4275 10.35 21.275V1.725C10.35 1.5725 10.2894 1.42625 10.1816 1.31842C10.0738 1.21058 9.9275 1.15 9.775 1.15Z" fill="white"/>
</g>
<defs>
<clipPath id="clip0_4547_3883">
<rect width="23" height="23" fill="white"/>
</clipPath>
</defs>
</svg>
