<svg width="21" height="21" viewBox="0 0 21 21" fill="none" xmlns="http://www.w3.org/2000/svg">
<path d="M20.1806 1.73828H16.6445C16.5737 1.73828 16.5058 1.76642 16.4557 1.81649C16.4056 1.86657 16.3775 1.93449 16.3775 2.00531C16.3775 2.05082 16.3919 2.09153 16.4116 2.12865V4.16311C16.4117 4.23767 16.3971 4.31152 16.3686 4.38041C16.3401 4.44931 16.2983 4.51191 16.2456 4.56464C16.1928 4.61736 16.1302 4.65916 16.0613 4.68766C15.9924 4.71616 15.9186 4.73078 15.844 4.7307H14.7436C14.6744 4.7307 14.6059 4.71708 14.5419 4.6906C14.478 4.66412 14.4199 4.62531 14.371 4.57639C14.3221 4.52746 14.2833 4.46938 14.2568 4.40545C14.2303 4.34153 14.2167 4.27302 14.2167 4.20383V2.16158C14.2518 2.11692 14.2716 2.06211 14.273 2.00531C14.2731 1.97022 14.2662 1.93546 14.2528 1.90303C14.2394 1.8706 14.2198 1.84113 14.1949 1.81632C14.1701 1.79151 14.1407 1.77184 14.1082 1.75845C14.0758 1.74506 14.041 1.7382 14.0059 1.73828H6.87814C6.80732 1.73828 6.7394 1.76642 6.68932 1.81649C6.63924 1.86657 6.61111 1.93449 6.61111 2.00531C6.61111 2.04662 6.62249 2.08434 6.63925 2.11967V4.17748C6.63925 4.25021 6.62492 4.32223 6.59709 4.38942C6.56926 4.45661 6.52847 4.51767 6.47704 4.56909C6.42561 4.62052 6.36456 4.66131 6.29737 4.68915C6.23018 4.71698 6.15816 4.7313 6.08543 4.7313H5.10831C4.96 4.7313 4.81776 4.67239 4.71289 4.56751C4.60802 4.46264 4.5491 4.32041 4.5491 4.17209V2.13464C4.57293 2.09564 4.58595 2.051 4.58682 2.00531C4.5869 1.97022 4.58005 1.93546 4.56666 1.90303C4.55327 1.8706 4.5336 1.84113 4.50879 1.81632C4.48398 1.79151 4.45451 1.77184 4.42207 1.75845C4.38964 1.74506 4.35488 1.7382 4.31979 1.73828H0.593934C0.436565 1.73844 0.285678 1.80098 0.174345 1.9122C0.0630127 2.02343 0.000316877 2.17425 0 2.33162V20.0143C0 20.3424 0.266432 20.6089 0.593934 20.6089H20.1806C20.3381 20.6085 20.489 20.5458 20.6002 20.4343C20.7114 20.3228 20.7739 20.1718 20.7739 20.0143V2.33162C20.7736 2.17435 20.711 2.02362 20.5998 1.91242C20.4886 1.80121 20.3379 1.7386 20.1806 1.73828ZM20.1806 20.0748H0.593934C0.586021 20.0748 0.578186 20.0732 0.570883 20.0702C0.563579 20.0671 0.556952 20.0627 0.551385 20.0571C0.545817 20.0514 0.54142 20.0448 0.538446 20.0374C0.535473 20.0301 0.533983 20.0222 0.534062 20.0143V6.67895H20.2399V20.0137C20.24 20.0216 20.2386 20.0295 20.2357 20.0369C20.2328 20.0442 20.2285 20.051 20.223 20.0566C20.2175 20.0623 20.2109 20.0668 20.2036 20.07C20.1963 20.0731 20.1885 20.0747 20.1806 20.0748Z" fill="white"/>
<path d="M5.66547 4.12521C5.81275 4.12521 5.9325 4.00546 5.9325 3.85818V0.267031C5.9325 0.231964 5.92559 0.19724 5.91217 0.164843C5.89875 0.132445 5.87908 0.103008 5.85429 0.0782116C5.82949 0.0534155 5.80005 0.0337461 5.76766 0.0203266C5.73526 0.00690703 5.70054 0 5.66547 0C5.6304 0 5.59568 0.00690703 5.56328 0.0203266C5.53088 0.0337461 5.50145 0.0534155 5.47665 0.0782116C5.45185 0.103008 5.43218 0.132445 5.41876 0.164843C5.40534 0.19724 5.39844 0.231964 5.39844 0.267031V3.85877C5.39844 4.00606 5.51818 4.12521 5.66547 4.12521ZM15.3373 4.12521C15.4845 4.12521 15.6043 4.00546 15.6043 3.85818V0.267031C15.6043 0.231964 15.5974 0.19724 15.584 0.164843C15.5705 0.132445 15.5509 0.103008 15.5261 0.0782116C15.5013 0.0534155 15.4718 0.0337461 15.4394 0.0203266C15.407 0.00690703 15.3723 0 15.3373 0C15.3022 0 15.2675 0.00690703 15.2351 0.0203266C15.2027 0.0337461 15.1732 0.0534155 15.1484 0.0782116C15.1236 0.103008 15.104 0.132445 15.0906 0.164843C15.0771 0.19724 15.0702 0.231964 15.0702 0.267031V3.85877C15.0702 4.00606 15.1894 4.12521 15.3373 4.12521Z" fill="white"/>
<path d="M4.29198 10.7207C5.10475 10.7207 5.76364 10.0618 5.76364 9.24901C5.76364 8.43623 5.10475 7.77734 4.29198 7.77734C3.4792 7.77734 2.82031 8.43623 2.82031 9.24901C2.82031 10.0618 3.4792 10.7207 4.29198 10.7207Z" fill="white"/>
<path d="M8.51854 10.7207C9.33132 10.7207 9.9902 10.0618 9.9902 9.24901C9.9902 8.43623 9.33132 7.77734 8.51854 7.77734C7.70576 7.77734 7.04688 8.43623 7.04688 9.24901C7.04688 10.0618 7.70576 10.7207 8.51854 10.7207Z" fill="white"/>
<path d="M12.7451 10.7207C13.5579 10.7207 14.2168 10.0618 14.2168 9.24901C14.2168 8.43623 13.5579 7.77734 12.7451 7.77734C11.9323 7.77734 11.2734 8.43623 11.2734 9.24901C11.2734 10.0618 11.9323 10.7207 12.7451 10.7207Z" fill="white"/>
<path d="M4.29198 14.8183C5.10475 14.8183 5.76364 14.1594 5.76364 13.3467C5.76364 12.5339 5.10475 11.875 4.29198 11.875C3.4792 11.875 2.82031 12.5339 2.82031 13.3467C2.82031 14.1594 3.4792 14.8183 4.29198 14.8183Z" fill="white"/>
<path d="M8.51854 14.8183C9.33132 14.8183 9.9902 14.1594 9.9902 13.3467C9.9902 12.5339 9.33132 11.875 8.51854 11.875C7.70576 11.875 7.04688 12.5339 7.04688 13.3467C7.04688 14.1594 7.70576 14.8183 8.51854 14.8183Z" fill="white"/>
<path d="M12.7451 14.8183C13.5579 14.8183 14.2168 14.1594 14.2168 13.3467C14.2168 12.5339 13.5579 11.875 12.7451 11.875C11.9323 11.875 11.2734 12.5339 11.2734 13.3467C11.2734 14.1594 11.9323 14.8183 12.7451 14.8183Z" fill="white"/>
<path d="M4.29198 18.916C5.10475 18.916 5.76364 18.2571 5.76364 17.4443C5.76364 16.6315 5.10475 15.9727 4.29198 15.9727C3.4792 15.9727 2.82031 16.6315 2.82031 17.4443C2.82031 18.2571 3.4792 18.916 4.29198 18.916Z" fill="white"/>
<path d="M8.51854 18.916C9.33132 18.916 9.9902 18.2571 9.9902 17.4443C9.9902 16.6315 9.33132 15.9727 8.51854 15.9727C7.70576 15.9727 7.04688 16.6315 7.04688 17.4443C7.04688 18.2571 7.70576 18.916 8.51854 18.916Z" fill="white"/>
<path d="M12.7451 18.916C13.5579 18.916 14.2168 18.2571 14.2168 17.4443C14.2168 16.6315 13.5579 15.9727 12.7451 15.9727C11.9323 15.9727 11.2734 16.6315 11.2734 17.4443C11.2734 18.2571 11.9323 18.916 12.7451 18.916Z" fill="white"/>
<path d="M16.8779 10.7207C17.6907 10.7207 18.3496 10.0618 18.3496 9.24901C18.3496 8.43623 17.6907 7.77734 16.8779 7.77734C16.0651 7.77734 15.4062 8.43623 15.4062 9.24901C15.4062 10.0618 16.0651 10.7207 16.8779 10.7207Z" fill="white"/>
<path d="M16.8779 14.8183C17.6907 14.8183 18.3496 14.1594 18.3496 13.3467C18.3496 12.5339 17.6907 11.875 16.8779 11.875C16.0651 11.875 15.4062 12.5339 15.4062 13.3467C15.4062 14.1594 16.0651 14.8183 16.8779 14.8183Z" fill="white"/>
<path d="M16.8779 18.916C17.6907 18.916 18.3496 18.2571 18.3496 17.4443C18.3496 16.6315 17.6907 15.9727 16.8779 15.9727C16.0651 15.9727 15.4062 16.6315 15.4062 17.4443C15.4062 18.2571 16.0651 18.916 16.8779 18.916Z" fill="white"/>
</svg>
