<svg width="22" height="18" viewBox="0 0 22 18" fill="none" xmlns="http://www.w3.org/2000/svg">
<path d="M10.9766 6.98511L7.48405 3.49256L10.9766 0L14.4692 3.49256L10.9766 6.98511ZM0 17.9617V13.9702C0 13.4048 0.195583 12.9308 0.58675 12.5483C0.977916 12.1657 1.44758 11.9745 1.99575 11.9745H5.26378C5.59641 11.9745 5.9124 12.0576 6.21176 12.2239C6.51112 12.3903 6.75228 12.6148 6.93522 12.8975C7.41752 13.5461 8.01226 14.0534 8.71942 14.4193C9.42658 14.7852 10.179 14.9681 10.9766 14.9681C11.7915 14.9681 12.5526 14.7852 13.2597 14.4193C13.9669 14.0534 14.553 13.5461 15.018 12.8975C15.2342 12.6148 15.488 12.3903 15.7794 12.2239C16.0707 12.0576 16.3741 11.9745 16.6894 11.9745H19.9575C20.5229 11.9745 20.9969 12.1657 21.3794 12.5483C21.762 12.9308 21.9532 13.4048 21.9532 13.9702V17.9617H14.9681V15.6916C14.386 16.1073 13.758 16.4233 13.0841 16.6395C12.4102 16.8557 11.7077 16.9638 10.9766 16.9638C10.2615 16.9638 9.56295 16.8517 8.88107 16.6276C8.19919 16.4034 7.56721 16.0831 6.98511 15.6666V17.9617H0ZM2.99362 10.9766C2.16206 10.9766 1.45523 10.6856 0.873139 10.1035C0.291046 9.52137 0 8.81455 0 7.98299C0 7.13479 0.291046 6.42397 0.873139 5.85053C1.45523 5.27709 2.16206 4.99003 2.99362 4.98937C3.84181 4.98937 4.55296 5.27642 5.12707 5.85053C5.70118 6.42464 5.9879 7.13546 5.98724 7.98299C5.98724 8.81455 5.70052 9.52137 5.12707 10.1035C4.55363 10.6856 3.84248 10.9766 2.99362 10.9766ZM18.9596 10.9766C18.128 10.9766 17.4212 10.6856 16.8391 10.1035C16.257 9.52137 15.966 8.81455 15.966 7.98299C15.966 7.13479 16.257 6.42397 16.8391 5.85053C17.4212 5.27709 18.128 4.99003 18.9596 4.98937C19.8078 4.98937 20.5189 5.27642 21.093 5.85053C21.6672 6.42464 21.9539 7.13546 21.9532 7.98299C21.9532 8.81455 21.6665 9.52137 21.093 10.1035C20.5196 10.6856 19.8084 10.9766 18.9596 10.9766Z" fill="white"/>
</svg>
