<svg width="16" height="20" viewBox="0 0 16 20" fill="none" xmlns="http://www.w3.org/2000/svg">
<path fill-rule="evenodd" clip-rule="evenodd" d="M10.3921 0L15.966 5.57389V19.9575H0V0H10.3921ZM9.56461 1.99576H1.99576V17.9617H13.9702V6.40134L9.56461 1.99576ZM6.27954 4.69788L6.98514 5.40348L4.86809 7.51988L6.98758 9.63945L6.28197 10.3451L3.4596 7.52269L6.27954 4.69788ZM9.65349 10.6465L12.4734 13.4713L9.65101 16.2937L8.9454 15.5881L11.0649 13.4685L8.94788 11.3521L9.65349 10.6465ZM7.73355 7.48405C7.73355 7.0707 8.0686 6.73564 8.48195 6.73564C8.89531 6.73564 9.23036 7.0707 9.23036 7.48405C9.23036 7.8974 8.89526 8.23245 8.48195 8.23245C8.06865 8.23245 7.73355 7.8974 7.73355 7.48405ZM10.4777 6.73564C10.0644 6.73564 9.72926 7.0707 9.72926 7.48405C9.72926 7.8974 10.0644 8.23245 10.4777 8.23245C10.891 8.23245 11.2261 7.8974 11.2261 7.48405C11.2261 7.0707 10.891 6.73564 10.4777 6.73564ZM3.74202 13.4713C3.74202 13.0579 4.07712 12.7229 4.49043 12.7229C4.90374 12.7229 5.23883 13.0579 5.23883 13.4713C5.23883 13.8846 4.90378 14.2197 4.49043 14.2197C4.07708 14.2197 3.74202 13.8846 3.74202 13.4713ZM6.48619 12.7229C6.07284 12.7229 5.73779 13.0579 5.73779 13.4713C5.73779 13.8846 6.07284 14.2197 6.48619 14.2197C6.89954 14.2197 7.2346 13.8846 7.2346 13.4713C7.2346 13.0579 6.89954 12.7229 6.48619 12.7229Z" fill="white"/>
</svg>
