<svg width="26" height="26" viewBox="0 0 26 26" fill="none" xmlns="http://www.w3.org/2000/svg">
<path d="M1.625 0C1.19402 0 0.780698 0.171205 0.475951 0.475951C0.171205 0.780698 0 1.19402 0 1.625L0 24.375C0 25.272 0.728 26 1.625 26H24.375C24.806 26 25.2193 25.8288 25.524 25.524C25.8288 25.2193 26 24.806 26 24.375V1.625C26 1.19402 25.8288 0.780698 25.524 0.475951C25.2193 0.171205 24.806 0 24.375 0L1.625 0ZM21.0795 8.125C21.4045 8.125 21.671 8.38933 21.671 8.7165V13.1993C21.6705 13.3161 21.6355 13.4301 21.5704 13.527C21.5052 13.624 21.4128 13.6994 21.3048 13.7439C21.1969 13.7884 21.0781 13.7999 20.9636 13.777C20.8491 13.7542 20.7439 13.6979 20.6613 13.6153L19.1837 12.1398L14.8503 16.4732C14.7497 16.5741 14.6302 16.6541 14.4985 16.7087C14.3669 16.7633 14.2258 16.7914 14.0833 16.7914C13.9408 16.7914 13.7997 16.7633 13.6681 16.7087C13.5365 16.6541 13.417 16.5741 13.3163 16.4732L10.8333 13.9923L6.18367 18.642C5.98025 18.8454 5.70435 18.9597 5.41667 18.9597C5.12899 18.9597 4.85309 18.8454 4.64967 18.642C4.44625 18.4386 4.33196 18.1627 4.33196 17.875C4.33196 17.5873 4.44625 17.3114 4.64967 17.108L10.0663 11.6913C10.167 11.5904 10.2865 11.5104 10.4181 11.4558C10.5497 11.4012 10.6908 11.3731 10.8333 11.3731C10.9758 11.3731 11.1169 11.4012 11.2485 11.4558C11.3802 11.5104 11.4997 11.5904 11.6003 11.6913L14.0833 14.1765L17.6518 10.608L16.1785 9.13467C16.0958 9.05195 16.0395 8.94657 16.0167 8.83185C15.9939 8.71713 16.0056 8.59823 16.0504 8.49017C16.0951 8.38211 16.1709 8.28974 16.2681 8.22474C16.3654 8.15974 16.4797 8.12503 16.5967 8.125H21.0795Z" fill="white"/>
</svg>
