<svg width="27" height="26" viewBox="0 0 27 26" fill="none" xmlns="http://www.w3.org/2000/svg">
<path d="M3.66733 0C2.69487 0 1.76224 0.386309 1.07461 1.07394C0.386975 1.76158 0.000666618 2.69421 0.000666618 3.66667V10.6667C1.06153 9.25218 2.64085 8.31705 4.39119 8.067C6.14153 7.81696 7.91951 8.27247 9.334 9.33333C10.7485 10.3942 11.6836 11.9735 11.9337 13.7239C12.1837 15.4742 11.7282 17.2522 10.6673 18.6667V20H23.0007C23.9731 20 24.9058 19.6137 25.5934 18.9261C26.281 18.2384 26.6673 17.3058 26.6673 16.3333V3.66667C26.6673 2.69421 26.281 1.76158 25.5934 1.07394C24.9058 0.386309 23.9731 0 23.0007 0H3.66733ZM6.334 5.33333H20.334C20.5992 5.33333 20.8536 5.43869 21.0411 5.62623C21.2286 5.81376 21.334 6.06812 21.334 6.33333C21.334 6.59855 21.2286 6.8529 21.0411 7.04044C20.8536 7.22798 20.5992 7.33333 20.334 7.33333H6.334C6.06878 7.33333 5.81443 7.22798 5.62689 7.04044C5.43936 6.8529 5.334 6.59855 5.334 6.33333C5.334 6.06812 5.43936 5.81376 5.62689 5.62623C5.81443 5.43869 6.06878 5.33333 6.334 5.33333ZM13.334 13C13.334 12.7348 13.4394 12.4804 13.6269 12.2929C13.8144 12.1054 14.0688 12 14.334 12H20.334C20.5992 12 20.8536 12.1054 21.0411 12.2929C21.2286 12.4804 21.334 12.7348 21.334 13C21.334 13.2652 21.2286 13.5196 21.0411 13.7071C20.8536 13.8946 20.5992 14 20.334 14H14.334C14.0688 14 13.8144 13.8946 13.6269 13.7071C13.4394 13.5196 13.334 13.2652 13.334 13ZM5.334 9.33333C3.91934 9.33333 2.56261 9.89531 1.56229 10.8956C0.561973 11.8959 0 13.2527 0 14.6673C0 16.082 0.561973 17.4387 1.56229 18.439C2.56261 19.4394 3.91934 20.0013 5.334 20.0013C6.74867 20.0013 8.10539 19.4394 9.10571 18.439C10.106 17.4387 10.668 16.082 10.668 14.6673C10.668 13.2527 10.106 11.8959 9.10571 10.8956C8.10539 9.89531 6.74867 9.33333 5.334 9.33333ZM9.334 20.0013C8.22067 20.8387 6.83533 21.3347 5.334 21.3347C3.89152 21.3374 2.4874 20.8703 1.334 20.004V24.332C1.334 25.092 2.14067 25.5587 2.78733 25.224L2.90733 25.1507L5.334 23.456L7.76067 25.152C7.90081 25.2499 8.0637 25.3102 8.23378 25.3271C8.40386 25.3441 8.57545 25.3172 8.73218 25.249C8.88891 25.1808 9.02554 25.0736 9.12903 24.9376C9.23253 24.8015 9.29942 24.6412 9.32333 24.472L9.334 24.332V20.0013Z" fill="white"/>
</svg>
