<svg width="64" height="64" viewBox="0 0 64 64" fill="none" xmlns="http://www.w3.org/2000/svg">
<rect width="64" height="64" rx="8" fill="#2A7445" fill-opacity="0.2"/>
<g clip-path="url(#clip0_4050_2463)">
<path d="M32.0013 21.5625C33.196 21.5625 34.3533 21.7198 35.4546 22.0145L32.62 24.8478C32.4049 25.0637 32.2152 25.3035 32.0546 25.5625H32.0013C30.1553 25.5625 28.3508 26.1099 26.816 27.1355C25.2811 28.161 24.0848 29.6187 23.3784 31.3241C22.672 33.0296 22.4872 34.9062 22.8473 36.7167C23.2074 38.5272 24.0963 40.1902 25.4016 41.4955C26.7069 42.8008 28.37 43.6897 30.1805 44.0498C31.9909 44.41 33.8676 44.2251 35.573 43.5187C37.2785 42.8123 38.7361 41.616 39.7617 40.0812C40.7872 38.5463 41.3346 36.7418 41.3346 34.8958V34.8425C41.5924 34.6825 41.8302 34.4936 42.048 34.2758L44.8826 31.4425C45.1773 32.5438 45.3346 33.7012 45.3346 34.8958C45.3346 42.2598 39.3653 48.2292 32.0013 48.2292C24.6373 48.2292 18.668 42.2598 18.668 34.8958C18.668 27.5318 24.6373 21.5625 32.0013 21.5625ZM31.4493 28.2518C31.4493 29.3865 31.3933 30.5372 31.4546 31.6705L30.7346 32.3905C30.487 32.6382 30.2905 32.9322 30.1565 33.2558C30.0224 33.5794 29.9534 33.9262 29.9534 34.2765C29.9534 34.6268 30.0224 34.9736 30.1565 35.2972C30.2905 35.6208 30.487 35.9148 30.7346 36.1625C30.9823 36.4102 31.2763 36.6066 31.5999 36.7407C31.9235 36.8747 32.2704 36.9437 32.6206 36.9437C32.9709 36.9437 33.3177 36.8747 33.6413 36.7407C33.9649 36.6066 34.259 36.4102 34.5066 36.1625L35.2266 35.4425C36.36 35.5038 37.5093 35.4478 38.6453 35.4478C38.54 36.715 38.0745 37.9255 37.3037 38.9368C36.533 39.948 35.4891 40.7178 34.2953 41.1552C33.1014 41.5927 31.8073 41.6796 30.5657 41.4058C29.324 41.1319 28.1866 40.5087 27.2875 39.6096C26.3884 38.7106 25.7652 37.5731 25.4913 36.3315C25.2175 35.0898 25.3044 33.7957 25.7419 32.6019C26.1794 31.408 26.9491 30.3642 27.9604 29.5934C28.9716 28.8226 30.1822 28.3572 31.4493 28.2518ZM40.6733 21.7318C40.9167 21.8327 41.1247 22.0035 41.2711 22.2225C41.4175 22.4415 41.4958 22.699 41.496 22.9625V25.4025H43.9346C44.1983 25.4026 44.456 25.4808 44.6752 25.6273C44.8945 25.7738 45.0653 25.982 45.1662 26.2256C45.2671 26.4692 45.2935 26.7373 45.2421 26.9959C45.1907 27.2545 45.0637 27.492 44.8773 27.6785L40.1613 32.3892C39.9113 32.6392 39.5722 32.7798 39.2186 32.7798H36.0013L33.564 35.2185C33.3138 35.4687 32.9745 35.6092 32.6206 35.6092C32.2668 35.6092 31.9275 35.4687 31.6773 35.2185C31.4271 34.9683 31.2866 34.629 31.2866 34.2752C31.2866 33.9213 31.4271 33.582 31.6773 33.3318L34.116 30.8958V27.6772C34.1158 27.5019 34.1503 27.3282 34.2173 27.1663C34.2843 27.0043 34.3827 26.8571 34.5066 26.7332L39.22 22.0198C39.4064 21.8333 39.644 21.7062 39.9027 21.6547C40.1614 21.6032 40.4296 21.6296 40.6733 21.7305" fill="#2A7445"/>
</g>
<defs>
<clipPath id="clip0_4050_2463">
<rect width="32" height="32" fill="white" transform="translate(16 16)"/>
</clipPath>
</defs>
</svg>
