<svg width="64" height="64" viewBox="0 0 64 64" fill="none" xmlns="http://www.w3.org/2000/svg">
<rect width="64" height="64" rx="8" fill="#2A7445" fill-opacity="0.2"/>
<path d="M28.0464 23.9492L24.6557 27.3319C24.033 27.9532 23.461 28.5225 23.009 29.0385C22.7032 29.3787 22.427 29.7445 22.1837 30.1319L22.1517 30.0985L22.025 29.9732C21.4343 29.4026 20.7413 28.9484 19.9823 28.6345L19.8183 28.5679L19.313 28.3679C19.1556 28.3058 19.0162 28.2056 18.9073 28.0761C18.7983 27.9467 18.7234 27.7922 18.6891 27.6266C18.6548 27.4609 18.6623 27.2893 18.711 27.1273C18.7596 26.9653 18.8478 26.8179 18.9677 26.6985C20.461 25.2079 22.2543 23.4199 23.121 23.0612C23.8737 22.7468 24.6974 22.6413 25.505 22.7559C26.233 22.8639 26.921 23.2385 28.0464 23.9492ZM33.837 41.7492C34.1103 42.0265 34.2903 42.2225 34.4557 42.4319C34.6717 42.7083 34.8646 43.0008 35.0343 43.3092C35.2237 43.6559 35.3717 44.0252 35.6663 44.7652C35.7242 44.9052 35.8157 45.0287 35.9327 45.1248C36.0497 45.2209 36.1886 45.2866 36.3371 45.3162C36.4856 45.3457 36.6391 45.3382 36.784 45.2941C36.9289 45.2501 37.0607 45.171 37.1677 45.0639L37.2797 44.9532C38.773 43.4639 40.5664 41.6759 40.9264 40.8132C41.2426 40.0638 41.3481 39.2422 41.2317 38.4372C41.1237 37.7105 40.749 37.0239 40.0357 35.9012L36.633 39.2932C35.9957 39.9292 35.4117 40.5119 34.8824 40.9679C34.5663 41.2425 34.2197 41.5145 33.837 41.7492Z" fill="#2A7445"/>
<path fill-rule="evenodd" clip-rule="evenodd" d="M35.261 37.8373L43.057 30.064C44.1796 28.9453 44.741 28.3853 45.0356 27.6746C45.3303 26.964 45.3316 26.1706 45.3316 24.588V23.832C45.3316 21.3973 45.3316 20.18 44.573 19.424C43.8143 18.668 42.5943 18.668 40.153 18.668H39.393C37.8063 18.668 37.013 18.668 36.2996 18.9626C35.585 19.2573 35.0236 19.8173 33.8996 20.936L26.105 28.7093C24.793 30.016 23.9796 30.828 23.665 31.6106C23.5675 31.8485 23.5168 32.1029 23.5156 32.36C23.5156 33.4293 24.3783 34.2906 26.105 36.012L26.337 36.2426L29.0543 33.484C29.1465 33.3904 29.2562 33.3159 29.3772 33.2647C29.4982 33.2135 29.6281 33.1866 29.7594 33.1856C29.8908 33.1847 30.0211 33.2096 30.1428 33.2589C30.2645 33.3083 30.3754 33.3811 30.469 33.4733C30.5625 33.5655 30.6371 33.6752 30.6882 33.7962C30.7394 33.9172 30.7663 34.0471 30.7673 34.1784C30.7683 34.3098 30.7434 34.4401 30.694 34.5618C30.6447 34.6836 30.5718 34.7944 30.4796 34.888L27.753 37.6546L27.9356 37.8373C29.6623 39.5573 30.5263 40.4186 31.5983 40.4186C31.8356 40.4186 32.0623 40.3773 32.2903 40.2933C33.0943 39.9973 33.9156 39.1786 35.261 37.8373ZM38.9236 28.7093C38.4373 29.1938 37.7788 29.4659 37.0923 29.4659C36.4058 29.4659 35.7473 29.1938 35.261 28.7093C35.0203 28.4701 34.8293 28.1857 34.699 27.8725C34.5686 27.5592 34.5015 27.2233 34.5015 26.884C34.5015 26.5447 34.5686 26.2087 34.699 25.8955C34.8293 25.5822 35.0203 25.2978 35.261 25.0586C35.7473 24.5741 36.4058 24.302 37.0923 24.302C37.7788 24.302 38.4373 24.5741 38.9236 25.0586C39.1643 25.2978 39.3553 25.5822 39.4856 25.8955C39.616 26.2087 39.6831 26.5447 39.6831 26.884C39.6831 27.2233 39.616 27.5592 39.4856 27.8725C39.3553 28.1857 39.1643 28.4701 38.9236 28.7093Z" fill="#2A7445"/>
</svg>
