<svg width="64" height="64" viewBox="0 0 64 64" fill="none" xmlns="http://www.w3.org/2000/svg">
<rect width="64" height="64" rx="8" fill="#2A7445" fill-opacity="0.2"/>
<path d="M27.0001 23C27.0001 21.6739 27.5269 20.4021 28.4646 19.4645C29.4023 18.5268 30.674 18 32.0001 18C33.3262 18 34.598 18.5268 35.5357 19.4645C36.4733 20.4021 37.0001 21.6739 37.0001 23C37.0001 24.3261 36.4733 25.5979 35.5357 26.5355C34.598 27.4732 33.3262 28 32.0001 28C30.674 28 29.4023 27.4732 28.4646 26.5355C27.5269 25.5979 27.0001 24.3261 27.0001 23ZM29.0001 30C28.2045 30 27.4414 30.3161 26.8788 30.8787C26.3162 31.4413 26.0001 32.2044 26.0001 33V38C26.0001 39.5913 26.6323 41.1174 27.7575 42.2426C28.8827 43.3679 30.4088 44 32.0001 44C33.5914 44 35.1175 43.3679 36.2428 42.2426C37.368 41.1174 38.0001 39.5913 38.0001 38V33C38.0001 32.2044 37.684 31.4413 37.1214 30.8787C36.5588 30.3161 35.7958 30 35.0001 30H29.0001ZM24.1121 31.94C24.0371 32.2883 23.9996 32.6437 24.0001 33V38C23.9999 39.0704 24.2145 40.13 24.6312 41.1159C25.048 42.1019 25.6583 42.9942 26.4261 43.74L26.2261 43.796C24.6895 44.2071 23.0525 43.9912 21.6749 43.1958C20.2974 42.4003 19.2921 41.0904 18.8801 39.554L18.1021 36.654C18.0002 36.2734 17.9742 35.8765 18.0257 35.4859C18.0772 35.0953 18.2051 34.7187 18.4022 34.3775C18.5992 34.0363 18.8615 33.7373 19.1742 33.4975C19.4868 33.2578 19.8435 33.0819 20.2241 32.98L24.1121 31.94ZM37.5721 43.74C38.3403 42.9944 38.951 42.1021 39.3681 41.1162C39.7851 40.1302 40.0001 39.0705 40.0001 38V33C39.9988 32.6347 39.9615 32.2813 39.8881 31.94L43.7741 32.98C44.1549 33.0819 44.5119 33.2578 44.8247 33.4977C45.1374 33.7376 45.3998 34.0369 45.5969 34.3782C45.794 34.7196 45.9218 35.0965 45.9732 35.4873C46.0245 35.8782 45.9983 36.2753 45.8961 36.656L45.1201 39.554C44.9117 40.3318 44.5489 41.0597 44.0532 41.6943C43.5576 42.3289 42.9393 42.8572 42.2351 43.2478C41.531 43.6384 40.7554 43.8833 39.9547 43.9678C39.1539 44.0524 38.3423 43.9749 37.5721 43.74ZM18.0001 26C18.0001 24.9391 18.4215 23.9217 19.1717 23.1716C19.9218 22.4214 20.9393 22 22.0001 22C23.061 22 24.0784 22.4214 24.8285 23.1716C25.5787 23.9217 26.0001 24.9391 26.0001 26C26.0001 27.0609 25.5787 28.0783 24.8285 28.8284C24.0784 29.5786 23.061 30 22.0001 30C20.9393 30 19.9218 29.5786 19.1717 28.8284C18.4215 28.0783 18.0001 27.0609 18.0001 26ZM38.0001 26C38.0001 24.9391 38.4215 23.9217 39.1717 23.1716C39.9218 22.4214 40.9393 22 42.0001 22C43.061 22 44.0784 22.4214 44.8285 23.1716C45.5787 23.9217 46.0001 24.9391 46.0001 26C46.0001 27.0609 45.5787 28.0783 44.8285 28.8284C44.0784 29.5786 43.061 30 42.0001 30C40.9393 30 39.9218 29.5786 39.1717 28.8284C38.4215 28.0783 38.0001 27.0609 38.0001 26Z" fill="#2A7445"/>
</svg>
