<svg width="33" height="33" viewBox="0 0 33 33" fill="none" xmlns="http://www.w3.org/2000/svg">
<g clip-path="url(#clip0_4228_4077)">
<path d="M6.41854 8.02587H1.2513C0.657546 8.02587 0.063795 8.53939 0.144032 9.37385L2.64742 25.4051C2.64742 25.4051 5.61617 13.5943 6.19388 10.7539C6.3704 9.90341 7.17276 9.63061 7.76652 9.63061H16.0469C16.0469 9.63061 14.9236 6.29276 14.8113 5.92367C14.6187 5.21759 14.2657 4.81641 13.5596 4.81641H8.24794C7.67023 4.81641 7.12462 5.1855 6.96415 5.84344C6.81972 6.48533 6.41854 8.02587 6.41854 8.02587ZM14.2496 8.02587H7.83071C7.83071 8.02587 8.50469 6.42114 9.22682 6.42114H12.6449C13.4152 6.42114 14.2496 8.02587 14.2496 8.02587ZM4.28424 26.0791C3.78678 26.8333 3.06465 27.2827 2.26228 27.2827H27.5047C28.3713 27.2827 28.9811 26.7852 29.1576 25.9507C29.8637 22.4364 31.8536 12.4068 31.8536 12.4068C31.9659 11.6044 31.3721 11.2353 30.8586 11.2353H25.6753V8.87638C25.6753 8.61962 25.2581 8.02587 24.6162 8.02587H18.5824C17.748 8.02587 17.1863 8.95662 17.1863 8.95662L16.0469 11.2353H8.97007C8.45655 11.2353 7.95908 11.5402 7.8628 12.0377C7.8628 12.0377 5.31127 22.7894 5.10266 23.8004C4.99033 24.3942 4.74962 25.3891 4.28424 26.0791ZM24.6804 11.2353H17.6517C17.6517 11.2353 18.5824 9.63061 19.465 9.63061H23.1399C24.2792 9.63061 24.6804 11.2353 24.6804 11.2353Z" fill="white"/>
</g>
<defs>
<clipPath id="clip0_4228_4077">
<rect width="32.0947" height="32.0947" fill="white"/>
</clipPath>
</defs>
</svg>
