<svg width="32" height="32" viewBox="0 0 32 32" fill="none" xmlns="http://www.w3.org/2000/svg">
<path d="M21.208 2.66797C21.208 3.21997 21.656 3.66797 22.208 3.66797H26.9187L17 13.588V10.668C17 10.4028 16.8946 10.1484 16.7071 9.96086C16.5196 9.77333 16.2652 9.66797 16 9.66797C15.7348 9.66797 15.4804 9.77333 15.2929 9.96086C15.1054 10.1484 15 10.4028 15 10.668V16.0013C15 16.5533 15.448 17.0013 16 17.0013H21.3333C21.5985 17.0013 21.8529 16.8959 22.0404 16.7084C22.228 16.5209 22.3333 16.2665 22.3333 16.0013C22.3333 15.7361 22.228 15.4817 22.0404 15.2942C21.8529 15.1067 21.5985 15.0013 21.3333 15.0013H18.4133L28.3333 5.0813V9.7933C28.3333 10.0585 28.4387 10.3129 28.6262 10.5004C28.8138 10.6879 29.0681 10.7933 29.3333 10.7933C29.5985 10.7933 29.8529 10.6879 30.0404 10.5004C30.228 10.3129 30.3333 10.0585 30.3333 9.7933V2.66797C30.3333 2.40275 30.228 2.1484 30.0404 1.96086C29.8529 1.77333 29.5985 1.66797 29.3333 1.66797H22.208C21.9428 1.66797 21.6884 1.77333 21.5009 1.96086C21.3134 2.1484 21.208 2.40275 21.208 2.66797Z" fill="#2A7445"/>
<path d="M26.3373 9.90797C26.3669 10.6808 26.6937 11.4124 27.2497 11.95C27.8057 12.4876 28.5479 12.7897 29.3213 12.7933C29.3346 13.7613 29.3346 14.8266 29.3346 16.0013C29.3346 22.2866 29.3346 25.4293 27.3813 27.3813C25.4306 29.3346 22.2866 29.3346 16.0013 29.3346C9.71597 29.3346 6.5733 29.3346 4.61997 27.3813C2.66797 25.4306 2.66797 22.2866 2.66797 16.0013C2.66797 9.71597 2.66797 6.5733 4.61997 4.61997C6.57464 2.66797 9.71597 2.66797 16.0013 2.66797C17.176 2.66797 18.2413 2.66797 19.2093 2.6813C19.2129 3.45471 19.515 4.19686 20.0526 4.75286C20.5902 5.30886 21.3218 5.63575 22.0946 5.6653L18.5973 9.16264C18.2664 8.59134 17.7563 8.14516 17.1461 7.89323C16.5358 7.64131 15.8595 7.59771 15.222 7.76921C14.5845 7.94071 14.0213 8.31772 13.6198 8.8418C13.2183 9.36588 13.0009 10.0078 13.0013 10.668V16.0013C13.0013 16.797 13.3174 17.56 13.88 18.1226C14.4426 18.6852 15.2057 19.0013 16.0013 19.0013H21.3346C21.9948 19.0017 22.6367 18.7843 23.1608 18.3828C23.6849 17.9813 24.0619 17.4181 24.2334 16.7806C24.4049 16.1431 24.3613 15.4668 24.1094 14.8565C23.8574 14.2463 23.4113 13.7362 22.84 13.4053L26.3373 9.90797Z" fill="#2A7445"/>
</svg>
