<svg width="24" height="24" viewBox="0 0 24 24" fill="none" xmlns="http://www.w3.org/2000/svg">
<path d="M7.80156 6.36079V3.80078C7.80156 3.24078 8.24156 2.80078 8.80156 2.80078C9.36156 2.80078 9.80156 3.24078 9.80156 3.80078V6.36079C9.80156 6.92079 9.36156 7.36079 8.80156 7.36079C8.24156 7.36079 7.80156 6.92079 7.80156 6.36079ZM15.2016 7.36079C15.7616 7.36079 16.2016 6.92079 16.2016 6.36079V3.80078C16.2016 3.24078 15.7616 2.80078 15.2016 2.80078C14.6416 2.80078 14.2016 3.24078 14.2016 3.80078V6.36079C14.2016 6.92079 14.6416 7.36079 15.2016 7.36079ZM8.44156 10.8008H15.5416C15.9816 10.8008 16.3416 10.4408 16.3416 10.0008C16.3416 9.56078 15.9816 9.20078 15.5416 9.20078H8.44156C8.00156 9.20078 7.64156 9.56078 7.64156 10.0008C7.64156 10.4408 8.00156 10.8008 8.44156 10.8008ZM19.6016 4.20078H17.9416C17.5016 4.20078 17.1416 4.56078 17.1416 5.00078C17.1416 5.44078 17.5016 5.80078 17.9416 5.80078H18.8016V19.4008H5.20156V5.80078H6.06156C6.50156 5.80078 6.86156 5.44078 6.86156 5.00078C6.86156 4.56078 6.50156 4.20078 6.06156 4.20078H4.40156C3.96156 4.20078 3.60156 4.64076 3.60156 5.08076V20.2008C3.60156 20.6408 3.96156 21.0008 4.40156 21.0008H19.6016C20.0416 21.0008 20.4016 20.6408 20.4016 20.2008V5.08076C20.4016 4.64076 20.0416 4.20078 19.6016 4.20078ZM11.3416 5.80078H12.6616C13.1016 5.80078 13.4616 5.44078 13.4616 5.00078C13.4616 4.56078 13.1016 4.20078 12.6616 4.20078H11.3416C10.9016 4.20078 10.5416 4.56078 10.5416 5.00078C10.5416 5.44078 10.9016 5.80078 11.3416 5.80078ZM8.44156 14.4008H15.5416C15.9816 14.4008 16.3416 14.0408 16.3416 13.6008C16.3416 13.1608 15.9816 12.8008 15.5416 12.8008H8.44156C8.00156 12.8008 7.64156 13.1608 7.64156 13.6008C7.64156 14.0408 8.00156 14.4008 8.44156 14.4008Z" fill="#2A7445"/>
</svg>
