<svg width="241" height="99" viewBox="0 0 241 99" fill="none" xmlns="http://www.w3.org/2000/svg">
<g opacity="0.2" style="mix-blend-mode:exclusion">
<path d="M28.408 169.925C12.1698 147.307 2.48455 120.648 0.417689 92.8817C-1.64917 65.1149 3.98243 37.3161 16.693 12.543C29.4036 -12.23 48.7007 -33.0174 72.4615 -47.5324C96.2223 -62.0474 123.526 -69.7276 151.37 -69.7283H152.37C176.925 -69.7644 201.116 -63.8008 222.841 -52.3563C235.06 -29.2883 241.107 -3.45302 240.396 22.6416C239.685 48.7363 232.239 74.2038 218.781 96.5719C205.324 118.94 186.312 137.449 163.591 150.301C140.87 163.154 115.212 169.914 89.1074 169.925H28.408Z" fill="#0A1C8F"/>
</g>
</svg>
