<svg width="35" height="23" viewBox="0 0 35 23" fill="none" xmlns="http://www.w3.org/2000/svg">
<g id="Group">
<path id="Vector" d="M31.4167 0H3.08333C1.51853 0 0.25 1.28718 0.25 2.875V20.125C0.25 21.7128 1.51853 23 3.08333 23H31.4167C32.9815 23 34.25 21.7128 34.25 20.125V2.875C34.25 1.28718 32.9815 0 31.4167 0Z" fill="#016FD0"/>
<path id="Vector_2" fill-rule="evenodd" clip-rule="evenodd" d="M19.749 19.2537V11.0579L34.1247 11.071V13.3349L32.4631 15.1367L34.1247 16.9549V19.2669H31.4718L30.062 17.6883L28.6622 19.2729L19.749 19.2537Z" fill="#FFFFFE"/>
<path id="Vector_3" fill-rule="evenodd" clip-rule="evenodd" d="M20.709 18.3552V11.9599H26.0531V13.4332H22.4393V14.4332H25.9669V15.882H22.4393V16.8642H26.0531V18.3552H20.709Z" fill="#016FD0"/>
<path id="Vector_4" fill-rule="evenodd" clip-rule="evenodd" d="M26.0265 18.3551L28.9836 15.1538L26.0264 11.96H28.3152L30.1221 13.9869L31.9342 11.96H34.1246V12.0103L31.2306 15.1538L34.1246 18.2644V18.3551H31.9122L30.0732 16.3079L28.2531 18.3551H26.0265Z" fill="#016FD0"/>
<path id="Vector_5" fill-rule="evenodd" clip-rule="evenodd" d="M20.4194 3.78345H23.8846L25.1018 6.5878V3.78345H29.3799L30.1176 5.88445L30.8578 3.78345H34.1246V11.9792H16.8604L20.4194 3.78345Z" fill="#FFFFFE"/>
<g id="Group_2">
<path id="Vector_6" fill-rule="evenodd" clip-rule="evenodd" d="M21.0758 4.67383L18.2793 11.0638H20.1973L20.7249 9.78415H23.5837L24.1109 11.0638H26.0766L23.2918 4.67383H21.0758ZM21.3161 8.35014L22.1548 6.31598L22.9928 8.35014H21.3161Z" fill="#016FD0"/>
<path id="Vector_7" fill-rule="evenodd" clip-rule="evenodd" d="M26.0508 11.0626V4.67279L28.7469 4.68219L30.1342 8.61049L31.5305 4.67279H34.1253V11.0626L32.4556 11.0776V6.6884L30.8794 11.0626H29.3554L27.7465 6.67341V11.0626H26.0508Z" fill="#016FD0"/>
</g>
</g>
</svg>
