<svg width="34" height="23" viewBox="0 0 34 23" fill="none" xmlns="http://www.w3.org/2000/svg">
<g id="319">
<g id="New Icons">
<g id="Card Brands">
<g id="Color">
<g id="Visa">
<path id="Container" d="M30.8128 0.359375H3.18783C1.62302 0.359375 0.354492 1.64656 0.354492 3.23438V19.7656C0.354492 21.3534 1.62302 22.6406 3.18783 22.6406H30.8128C32.3776 22.6406 33.6462 21.3534 33.6462 19.7656V3.23438C33.6462 1.64656 32.3776 0.359375 30.8128 0.359375Z" fill="white" stroke="black" stroke-opacity="0.2" stroke-width="0.703125"/>
<path id="Shape" d="M3.94961 8.50194C3.2085 8.08948 2.36267 7.75775 1.41699 7.52754L1.45666 7.34827H5.33405C5.85961 7.36696 6.28606 7.52742 6.42483 8.09409L7.2675 12.1707L7.52564 13.3985L9.88578 7.34827H12.4341L8.64607 16.2114H6.09761L3.94961 8.50194ZM14.3086 16.2208H11.8987L13.406 7.34827H15.8159L14.3086 16.2208ZM23.0449 7.56518L22.7172 9.48109L22.4992 9.38688C22.0631 9.20748 21.4875 9.02821 20.704 9.04715C19.7525 9.04715 19.3258 9.43392 19.3159 9.81154C19.3159 10.2269 19.8321 10.5006 20.675 10.9066C22.0635 11.539 22.7076 12.3129 22.6979 13.323C22.6784 15.1636 21.0322 16.353 18.5035 16.353C17.4223 16.3435 16.3809 16.126 15.8157 15.8808L16.153 13.8891L16.4703 14.0309C17.2538 14.3616 17.7693 14.5028 18.7315 14.5028C19.4253 14.5028 20.1692 14.2289 20.1787 13.6345C20.1787 13.2474 19.8618 12.964 18.9294 12.5298C18.0172 12.1049 16.7975 11.3971 16.8173 10.1228C16.8276 8.39555 18.5035 7.18744 20.8834 7.18744C21.8156 7.18744 22.5696 7.38565 23.0449 7.56518ZM26.248 13.0776H28.2511C28.152 12.634 27.6956 10.5102 27.6956 10.5102L27.5272 9.74567C27.4082 10.076 27.2001 10.6141 27.2101 10.5951C27.2101 10.5951 26.4464 12.5679 26.248 13.0776ZM29.2228 7.34827L31.167 16.2207H28.9356C28.9356 16.2207 28.7172 15.2012 28.648 14.8897H25.5539C25.4644 15.1256 25.0481 16.2207 25.0481 16.2207H22.5194L26.0991 8.08443C26.3471 7.5086 26.7838 7.34827 27.3587 7.34827H29.2228Z" fill="#171E6C"/>
</g>
</g>
</g>
</g>
</g>
</svg>
